<?xml version="1.0" encoding="UTF-8" standalone="no"?>
<!DOCTYPE svg PUBLIC "-//W3C//DTD SVG 1.1//EN"
 "http://www.w3.org/Graphics/SVG/1.1/DTD/svg11.dtd">
<!-- Generated by graphviz version 15.0.0 (20260523.1842)
 -->
<!-- Title: clean_architecture Pages: 1 -->
<svg width="1147pt" height="781pt"
 viewBox="0.00 0.00 1147.00 781.00" xmlns="http://www.w3.org/2000/svg" xmlns:xlink="http://www.w3.org/1999/xlink">
<g id="graph0" class="graph" transform="scale(1 1) rotate(0) translate(25.2 756.2)">
<title>clean_architecture</title>
<polygon fill="#111318" stroke="none" points="-25.2,25.2 -25.2,-756.2 1121.6,-756.2 1121.6,25.2 -25.2,25.2"/>
<g id="clust1" class="cluster">
<title>cluster_delivery</title>
<path fill="#111318" stroke="#60708a" d="M20,-570C20,-570 336.19,-570 336.19,-570 342.19,-570 348.19,-576 348.19,-582 348.19,-582 348.19,-711 348.19,-711 348.19,-717 342.19,-723 336.19,-723 336.19,-723 20,-723 20,-723 14,-723 8,-717 8,-711 8,-711 8,-582 8,-582 8,-576 14,-570 20,-570"/>
<text xml:space="preserve" text-anchor="middle" x="178.09" y="-705.7" font-family="Times,serif" font-size="14.00" fill="#edf2ff">Delivery</text>
</g>
<g id="clust2" class="cluster">
<title>cluster_application</title>
<path fill="#111318" stroke="#6f80c8" d="M229.78,-409C229.78,-409 634.84,-409 634.84,-409 640.84,-409 646.84,-415 646.84,-421 646.84,-421 646.84,-550 646.84,-550 646.84,-556 640.84,-562 634.84,-562 634.84,-562 229.78,-562 229.78,-562 223.78,-562 217.78,-556 217.78,-550 217.78,-550 217.78,-421 217.78,-421 217.78,-415 223.78,-409 229.78,-409"/>
<text xml:space="preserve" text-anchor="middle" x="432.31" y="-544.7" font-family="Times,serif" font-size="14.00" fill="#dfe4ff">Application boundary</text>
</g>
<g id="clust3" class="cluster">
<title>cluster_domain</title>
<path fill="#111318" stroke="#d3a253" d="M785.09,-365C785.09,-365 1076.4,-365 1076.4,-365 1082.4,-365 1088.4,-371 1088.4,-377 1088.4,-377 1088.4,-506 1088.4,-506 1088.4,-512 1082.4,-518 1076.4,-518 1076.4,-518 785.09,-518 785.09,-518 779.09,-518 773.09,-512 773.09,-506 773.09,-506 773.09,-377 773.09,-377 773.09,-371 779.09,-365 785.09,-365"/>
<text xml:space="preserve" text-anchor="middle" x="930.75" y="-500.7" font-family="Times,serif" font-size="14.00" fill="#ffe4b6">Domain policy</text>
</g>
<g id="clust4" class="cluster">
<title>cluster_ports</title>
<path fill="#111318" stroke="#78a1d6" d="M788.47,-43C788.47,-43 882.5,-43 882.5,-43 888.5,-43 894.5,-49 894.5,-55 894.5,-55 894.5,-336 894.5,-336 894.5,-342 888.5,-348 882.5,-348 882.5,-348 788.47,-348 788.47,-348 782.47,-348 776.47,-342 776.47,-336 776.47,-336 776.47,-55 776.47,-55 776.47,-49 782.47,-43 788.47,-43"/>
<text xml:space="preserve" text-anchor="middle" x="835.48" y="-330.7" font-family="Times,serif" font-size="14.00" fill="#d7ecff">Ports</text>
</g>
<g id="clust5" class="cluster">
<title>cluster_adapters</title>
<path fill="#111318" stroke="#5da886" d="M542.31,-8C542.31,-8 658.84,-8 658.84,-8 664.84,-8 670.84,-14 670.84,-20 670.84,-20 670.84,-301 670.84,-301 670.84,-307 664.84,-313 658.84,-313 658.84,-313 542.31,-313 542.31,-313 536.31,-313 530.31,-307 530.31,-301 530.31,-301 530.31,-20 530.31,-20 530.31,-14 536.31,-8 542.31,-8"/>
<text xml:space="preserve" text-anchor="middle" x="600.58" y="-295.7" font-family="Times,serif" font-size="14.00" fill="#d4ffe9">Adapters</text>
</g>
<g id="clust6" class="cluster">
<title>cluster_support</title>
<path fill="#111318" stroke="#8a7ab8" d="M217.78,-172C217.78,-172 358.31,-172 358.31,-172 364.31,-172 370.31,-178 370.31,-184 370.31,-184 370.31,-389 370.31,-389 370.31,-395 364.31,-401 358.31,-401 358.31,-401 217.78,-401 217.78,-401 211.78,-401 205.78,-395 205.78,-389 205.78,-389 205.78,-184 205.78,-184 205.78,-178 211.78,-172 217.78,-172"/>
<text xml:space="preserve" text-anchor="middle" x="288.05" y="-383.7" font-family="Times,serif" font-size="14.00" fill="#eadfff">Support</text>
</g>
<!-- web_ui&#45;&gt;api_layer -->
<g id="edge1" class="edge">
<title>web_ui&#45;&gt;api_layer</title>
<path fill="none" stroke="#91a0b8" stroke-width="1.25" d="M75.43,-672C139.44,-672 288.4,-672 288.4,-672 288.4,-672 288.4,-623.29 288.4,-623.29"/>
<polygon fill="#91a0b8" stroke="#91a0b8" stroke-width="1.25" points="290.85,-623.29 288.4,-616.29 285.95,-623.29 290.85,-623.29"/>
</g>
<!-- api_layer&#45;&gt;use_cases -->
<g id="edge2" class="edge">
<title>api_layer&#45;&gt;use_cases</title>
<path fill="none" stroke="#91a0b8" stroke-width="1.25" d="M340.53,-605C426.38,-605 587.4,-605 587.4,-605 587.4,-605 587.4,-462.08 587.4,-462.08"/>
<polygon fill="#91a0b8" stroke="#91a0b8" stroke-width="1.25" points="589.85,-462.08 587.4,-455.08 584.95,-462.08 589.85,-462.08"/>
</g>
<!-- api_layer&#45;&gt;observability -->
<g id="edge18" class="edge">
<title>api_layer&#45;&gt;observability</title>
<path fill="none" stroke="#91a0b8" stroke-width="1.25" d="M340.49,-587C348.09,-587 353.4,-587 353.4,-587 353.4,-587 353.4,-356 353.4,-356 353.4,-356 340.89,-356 340.89,-356"/>
<polygon fill="#91a0b8" stroke="#91a0b8" stroke-width="1.25" points="340.89,-353.55 333.89,-356 340.89,-358.45 340.89,-353.55"/>
</g>
<!-- workers&#45;&gt;command_handlers -->
<g id="edge3" class="edge">
<title>workers&#45;&gt;command_handlers</title>
<path fill="none" stroke="#91a0b8" stroke-width="1.25" d="M77.92,-596C130.31,-596 230.4,-596 230.4,-596 230.4,-596 230.4,-538.34 230.4,-538.34"/>
<polygon fill="#91a0b8" stroke="#91a0b8" stroke-width="1.25" points="232.85,-538.34 230.4,-531.34 227.95,-538.34 232.85,-538.34"/>
</g>
<!-- workers&#45;&gt;observability -->
<g id="edge19" class="edge">
<title>workers&#45;&gt;observability</title>
<path fill="none" stroke="#91a0b8" stroke-width="1.25" d="M46.4,-577.51C46.4,-520.3 46.4,-350 46.4,-350 46.4,-350 235.39,-350 235.39,-350"/>
<polygon fill="#91a0b8" stroke="#91a0b8" stroke-width="1.25" points="235.39,-352.45 242.39,-350 235.39,-347.55 235.39,-352.45"/>
</g>
<!-- use_cases&#45;&gt;domain_model -->
<g id="edge6" class="edge">
<title>use_cases&#45;&gt;domain_model</title>
<path fill="none" stroke="#91a0b8" stroke-width="1.25" d="M619.4,-416.59C619.4,-404.54 619.4,-391 619.4,-391 619.4,-391 778.63,-391 778.63,-391"/>
<polygon fill="#91a0b8" stroke="#91a0b8" stroke-width="1.25" points="778.63,-393.45 785.63,-391 778.63,-388.55 778.63,-393.45"/>
</g>
<!-- use_cases&#45;&gt;domain_services -->
<g id="edge7" class="edge">
<title>use_cases&#45;&gt;domain_services</title>
<path fill="none" stroke="#91a0b8" stroke-width="1.25" d="M613.4,-453.19C613.4,-461.28 613.4,-469 613.4,-469 613.4,-469 771.98,-469 771.98,-469"/>
<polygon fill="#91a0b8" stroke="#91a0b8" stroke-width="1.25" points="771.98,-471.45 778.98,-469 771.98,-466.55 771.98,-471.45"/>
</g>
<!-- use_cases&#45;&gt;repo_port -->
<g id="edge10" class="edge">
<title>use_cases&#45;&gt;repo_port</title>
<path fill="none" stroke="#91a0b8" stroke-width="1.25" d="M639.04,-422C648.71,-422 656.4,-422 656.4,-422 656.4,-422 656.4,-151.33 656.4,-151.33 656.4,-151.33 776.23,-151.33 776.23,-151.33"/>
<polygon fill="#91a0b8" stroke="#91a0b8" stroke-width="1.25" points="776.23,-153.78 783.23,-151.33 776.23,-148.88 776.23,-153.78"/>
</g>
<!-- use_cases&#45;&gt;payment_port -->
<g id="edge11" class="edge">
<title>use_cases&#45;&gt;payment_port</title>
<path fill="none" stroke="#91a0b8" stroke-width="1.25" d="M639.12,-432C674.81,-432 722.4,-432 722.4,-432 722.4,-432 722.4,-69.5 722.4,-69.5 722.4,-69.5 781.57,-69.5 781.57,-69.5"/>
<polygon fill="#91a0b8" stroke="#91a0b8" stroke-width="1.25" points="781.57,-71.95 788.57,-69.5 781.57,-67.05 781.57,-71.95"/>
</g>
<!-- use_cases&#45;&gt;notification_port -->
<g id="edge12" class="edge">
<title>use_cases&#45;&gt;notification_port</title>
<path fill="none" stroke="#91a0b8" stroke-width="1.25" d="M639.16,-427C650.24,-427 659.4,-427 659.4,-427 659.4,-427 659.4,-227.5 659.4,-227.5 659.4,-227.5 775.19,-227.5 775.19,-227.5"/>
<polygon fill="#91a0b8" stroke="#91a0b8" stroke-width="1.25" points="775.19,-229.95 782.19,-227.5 775.19,-225.05 775.19,-229.95"/>
</g>
<!-- use_cases&#45;&gt;observability -->
<g id="edge20" class="edge">
<title>use_cases&#45;&gt;observability</title>
<path fill="none" stroke="#91a0b8" stroke-width="1.25" d="M581.4,-416.58C581.4,-389.99 581.4,-344 581.4,-344 581.4,-344 340.86,-344 340.86,-344"/>
<polygon fill="#91a0b8" stroke="#91a0b8" stroke-width="1.25" points="340.86,-341.55 333.86,-344 340.86,-346.45 340.86,-341.55"/>
</g>
<!-- command_handlers&#45;&gt;use_cases -->
<g id="edge4" class="edge">
<title>command_handlers&#45;&gt;use_cases</title>
<path fill="none" stroke="#91a0b8" stroke-width="1.25" d="M346.4,-492.69C346.4,-472.85 346.4,-444 346.4,-444 346.4,-444 553.08,-444 553.08,-444"/>
<polygon fill="#91a0b8" stroke="#91a0b8" stroke-width="1.25" points="553.08,-446.45 560.08,-444 553.08,-441.55 553.08,-446.45"/>
</g>
<!-- command_handlers&#45;&gt;job_port -->
<g id="edge13" class="edge">
<title>command_handlers&#45;&gt;job_port</title>
<path fill="none" stroke="#91a0b8" stroke-width="1.25" d="M342.4,-492.59C342.4,-441.8 342.4,-303.5 342.4,-303.5 342.4,-303.5 795.37,-303.5 795.37,-303.5"/>
<polygon fill="#91a0b8" stroke="#91a0b8" stroke-width="1.25" points="795.37,-305.95 802.37,-303.5 795.37,-301.05 795.37,-305.95"/>
</g>
<!-- query_handlers&#45;&gt;use_cases -->
<g id="edge5" class="edge">
<title>query_handlers&#45;&gt;use_cases</title>
<path fill="none" stroke="#91a0b8" stroke-width="1.25" d="M338.95,-435C338.95,-435 553.13,-435 553.13,-435"/>
<polygon fill="#91a0b8" stroke="#91a0b8" stroke-width="1.25" points="553.13,-437.45 560.13,-435 553.13,-432.55 553.13,-437.45"/>
</g>
<!-- domain_model&#45;&gt;invariants -->
<g id="edge9" class="edge">
<title>domain_model&#45;&gt;invariants</title>
<path fill="none" stroke="#91a0b8" stroke-width="1.25" d="M819.4,-409.44C819.4,-422.24 819.4,-437 819.4,-437 819.4,-437 949.58,-437 949.58,-437"/>
<polygon fill="#91a0b8" stroke="#91a0b8" stroke-width="1.25" points="949.58,-439.45 956.58,-437 949.58,-434.55 949.58,-439.45"/>
</g>
<!-- domain_services&#45;&gt;invariants -->
<g id="edge8" class="edge">
<title>domain_services&#45;&gt;invariants</title>
<path fill="none" stroke="#91a0b8" stroke-width="1.25" d="M851.4,-448.57C851.4,-444.82 851.4,-442 851.4,-442 851.4,-442 949.53,-442 949.53,-442"/>
<polygon fill="#91a0b8" stroke="#91a0b8" stroke-width="1.25" points="949.53,-444.45 956.53,-442 949.53,-439.55 949.53,-444.45"/>
</g>
<!-- db_adapter&#45;&gt;repo_port -->
<g id="edge14" class="edge">
<title>db_adapter&#45;&gt;repo_port</title>
<path fill="none" stroke="#91a0b8" stroke-width="1.25" d="M652.4,-128.28C652.4,-134.39 652.4,-139.67 652.4,-139.67 652.4,-139.67 776.56,-139.67 776.56,-139.67"/>
<polygon fill="#91a0b8" stroke="#91a0b8" stroke-width="1.25" points="776.56,-142.12 783.56,-139.67 776.56,-137.22 776.56,-142.12"/>
<text xml:space="preserve" text-anchor="middle" x="721.97" y="-84.75" font-family="Helvetica,sans-Serif" font-size="10.00" fill="#c4cce0">implements</text>
</g>
<!-- payment_adapter&#45;&gt;payment_port -->
<g id="edge15" class="edge">
<title>payment_adapter&#45;&gt;payment_port</title>
<path fill="none" stroke="#91a0b8" stroke-width="1.25" d="M655.33,-33.5C724.72,-33.5 835.4,-33.5 835.4,-33.5 835.4,-33.5 835.4,-41.94 835.4,-41.94"/>
<polygon fill="#91a0b8" stroke="#91a0b8" stroke-width="1.25" points="832.95,-41.94 835.4,-48.94 837.85,-41.94 832.95,-41.94"/>
<text xml:space="preserve" text-anchor="middle" x="721.97" y="-28.75" font-family="Helvetica,sans-Serif" font-size="10.00" fill="#c4cce0">implements</text>
</g>
<!-- email_adapter&#45;&gt;notification_port -->
<g id="edge16" class="edge">
<title>email_adapter&#45;&gt;notification_port</title>
<path fill="none" stroke="#91a0b8" stroke-width="1.25" d="M600.4,-204.43C600.4,-207.66 600.4,-210 600.4,-210 600.4,-210 775.29,-210 775.29,-210"/>
<polygon fill="#91a0b8" stroke="#91a0b8" stroke-width="1.25" points="775.29,-212.45 782.29,-210 775.29,-207.55 775.29,-212.45"/>
<text xml:space="preserve" text-anchor="middle" x="721.97" y="-187.75" font-family="Helvetica,sans-Serif" font-size="10.00" fill="#c4cce0">implements</text>
</g>
<!-- queue_adapter&#45;&gt;job_port -->
<g id="edge17" class="edge">
<title>queue_adapter&#45;&gt;job_port</title>
<path fill="none" stroke="#91a0b8" stroke-width="1.25" d="M644.4,-280.42C644.4,-282 644.4,-283 644.4,-283 644.4,-283 795.46,-283 795.46,-283"/>
<polygon fill="#91a0b8" stroke="#91a0b8" stroke-width="1.25" points="795.46,-285.45 802.46,-283 795.46,-280.55 795.46,-285.45"/>
<text xml:space="preserve" text-anchor="middle" x="721.97" y="-290.75" font-family="Helvetica,sans-Serif" font-size="10.00" fill="#c4cce0">implements</text>
</g>
<!-- tests&#45;&gt;use_cases -->
<g id="edge21" class="edge">
<title>tests&#45;&gt;use_cases</title>
<path fill="none" stroke="#91a0b8" stroke-width="1.25" d="M338.23,-289C426.53,-289 600.4,-289 600.4,-289 600.4,-289 600.4,-407.62 600.4,-407.62"/>
<polygon fill="#91a0b8" stroke="#91a0b8" stroke-width="1.25" points="597.95,-407.62 600.4,-414.62 602.85,-407.62 597.95,-407.62"/>
<text xml:space="preserve" text-anchor="middle" x="450.31" y="-399.75" font-family="Helvetica,sans-Serif" font-size="10.00" fill="#c4cce0">exercise public boundary</text>
</g>
<!-- tests&#45;&gt;domain_model -->
<g id="edge22" class="edge">
<title>tests&#45;&gt;domain_model</title>
<path fill="none" stroke="#91a0b8" stroke-width="1.25" d="M338.18,-286C466.43,-286 796.4,-286 796.4,-286 796.4,-286 796.4,-363.82 796.4,-363.82"/>
<polygon fill="#91a0b8" stroke="#91a0b8" stroke-width="1.25" points="793.95,-363.82 796.4,-370.82 798.85,-363.82 793.95,-363.82"/>
</g>
<!-- adr&#45;&gt;api_layer -->
<g id="edge23" class="edge">
<title>adr&#45;&gt;api_layer</title>
<path fill="none" stroke="#91a0b8" stroke-width="1.25" d="M356.4,-216.4C356.4,-294.67 356.4,-596 356.4,-596 356.4,-596 349.44,-596 349.44,-596"/>
<polygon fill="#91a0b8" stroke="#91a0b8" stroke-width="1.25" points="349.44,-593.55 342.44,-596 349.44,-598.45 349.44,-593.55"/>
<text xml:space="preserve" text-anchor="middle" x="145.66" y="-343.12" font-family="Helvetica,sans-Serif" font-size="10.00" fill="#c4cce0">allowed imports</text>
</g>
<!-- adr&#45;&gt;use_cases -->
<g id="edge24" class="edge">
<title>adr&#45;&gt;use_cases</title>
<path fill="none" stroke="#91a0b8" stroke-width="1.25" d="M359.4,-216.27C359.4,-270.38 359.4,-426 359.4,-426 359.4,-426 552.93,-426 552.93,-426"/>
<polygon fill="#91a0b8" stroke="#91a0b8" stroke-width="1.25" points="552.93,-428.45 559.93,-426 552.93,-423.55 552.93,-428.45"/>
<text xml:space="preserve" text-anchor="middle" x="450.31" y="-276.75" font-family="Helvetica,sans-Serif" font-size="10.00" fill="#c4cce0">entrypoints</text>
</g>
<!-- adr&#45;&gt;db_adapter -->
<g id="edge25" class="edge">
<title>adr&#45;&gt;db_adapter</title>
<path fill="none" stroke="#91a0b8" stroke-width="1.25" d="M362.48,-192C438.49,-192 545.4,-192 545.4,-192 545.4,-192 545.4,-137.09 545.4,-137.09"/>
<polygon fill="#91a0b8" stroke="#91a0b8" stroke-width="1.25" points="547.85,-137.09 545.4,-130.09 542.95,-137.09 547.85,-137.09"/>
<text xml:space="preserve" text-anchor="middle" x="450.31" y="-155.75" font-family="Helvetica,sans-Serif" font-size="10.00" fill="#c4cce0">detail boundary</text>
</g>
<!-- web_ui -->
<g id="node1" class="node">
<title>web_ui</title>
<path fill="#232838" stroke="#60708a" d="M63.28,-690C63.28,-690 30.25,-690 30.25,-690 24.25,-690 18.25,-684 18.25,-678 18.25,-678 18.25,-666 18.25,-666 18.25,-660 24.25,-654 30.25,-654 30.25,-654 63.28,-654 63.28,-654 69.28,-654 75.28,-660 75.28,-666 75.28,-666 75.28,-678 75.28,-678 75.28,-684 69.28,-690 63.28,-690"/>
<text xml:space="preserve" text-anchor="middle" x="46.77" y="-666.98" font-family="Helvetica,sans-Serif" font-size="12.00" fill="#edf2ff">Web UI</text>
</g>
<!-- api_layer -->
<g id="node2" class="node">
<title>api_layer</title>
<path fill="#232838" stroke="#60708a" d="M328.19,-614C328.19,-614 247.91,-614 247.91,-614 241.91,-614 235.91,-608 235.91,-602 235.91,-602 235.91,-590 235.91,-590 235.91,-584 241.91,-578 247.91,-578 247.91,-578 328.19,-578 328.19,-578 334.19,-578 340.19,-584 340.19,-590 340.19,-590 340.19,-602 340.19,-602 340.19,-608 334.19,-614 328.19,-614"/>
<text xml:space="preserve" text-anchor="middle" x="288.05" y="-590.98" font-family="Helvetica,sans-Serif" font-size="12.00" fill="#edf2ff">API / Controllers</text>
</g>
<!-- workers -->
<g id="node3" class="node">
<title>workers</title>
<path fill="#232838" stroke="#60708a" d="M65.53,-614C65.53,-614 28,-614 28,-614 22,-614 16,-608 16,-602 16,-602 16,-590 16,-590 16,-584 22,-578 28,-578 28,-578 65.53,-578 65.53,-578 71.53,-578 77.53,-584 77.53,-590 77.53,-590 77.53,-602 77.53,-602 77.53,-608 71.53,-614 65.53,-614"/>
<text xml:space="preserve" text-anchor="middle" x="46.77" y="-590.98" font-family="Helvetica,sans-Serif" font-size="12.00" fill="#edf2ff">Workers</text>
</g>
<!-- use_cases -->
<g id="node4" class="node">
<title>use_cases</title>
<path fill="#232838" stroke="#60708a" d="M626.84,-453C626.84,-453 574.31,-453 574.31,-453 568.31,-453 562.31,-447 562.31,-441 562.31,-441 562.31,-429 562.31,-429 562.31,-423 568.31,-417 574.31,-417 574.31,-417 626.84,-417 626.84,-417 632.84,-417 638.84,-423 638.84,-429 638.84,-429 638.84,-441 638.84,-441 638.84,-447 632.84,-453 626.84,-453"/>
<text xml:space="preserve" text-anchor="middle" x="600.58" y="-429.98" font-family="Helvetica,sans-Serif" font-size="12.00" fill="#edf2ff">Use Cases</text>
</g>
<!-- command_handlers -->
<g id="node5" class="node">
<title>command_handlers</title>
<path fill="#232838" stroke="#60708a" d="M338.31,-529C338.31,-529 237.78,-529 237.78,-529 231.78,-529 225.78,-523 225.78,-517 225.78,-517 225.78,-505 225.78,-505 225.78,-499 231.78,-493 237.78,-493 237.78,-493 338.31,-493 338.31,-493 344.31,-493 350.31,-499 350.31,-505 350.31,-505 350.31,-517 350.31,-517 350.31,-523 344.31,-529 338.31,-529"/>
<text xml:space="preserve" text-anchor="middle" x="288.05" y="-505.98" font-family="Helvetica,sans-Serif" font-size="12.00" fill="#edf2ff">Command Handlers</text>
</g>
<!-- query_handlers -->
<g id="node6" class="node">
<title>query_handlers</title>
<path fill="#232838" stroke="#60708a" d="M326.69,-453C326.69,-453 249.41,-453 249.41,-453 243.41,-453 237.41,-447 237.41,-441 237.41,-441 237.41,-429 237.41,-429 237.41,-423 243.41,-417 249.41,-417 249.41,-417 326.69,-417 326.69,-417 332.69,-417 338.69,-423 338.69,-429 338.69,-429 338.69,-441 338.69,-441 338.69,-447 332.69,-453 326.69,-453"/>
<text xml:space="preserve" text-anchor="middle" x="288.05" y="-429.98" font-family="Helvetica,sans-Serif" font-size="12.00" fill="#edf2ff">Query Handlers</text>
</g>
<!-- domain_model -->
<g id="node7" class="node">
<title>domain_model</title>
<path fill="#232838" stroke="#60708a" d="M871.12,-409C871.12,-409 799.84,-409 799.84,-409 793.84,-409 787.84,-403 787.84,-397 787.84,-397 787.84,-385 787.84,-385 787.84,-379 793.84,-373 799.84,-373 799.84,-373 871.12,-373 871.12,-373 877.12,-373 883.12,-379 883.12,-385 883.12,-385 883.12,-397 883.12,-397 883.12,-403 877.12,-409 871.12,-409"/>
<text xml:space="preserve" text-anchor="middle" x="835.48" y="-385.98" font-family="Helvetica,sans-Serif" font-size="12.00" fill="#edf2ff">Domain Model</text>
</g>
<!-- domain_services -->
<g id="node8" class="node">
<title>domain_services</title>
<path fill="#232838" stroke="#60708a" d="M877.87,-485C877.87,-485 793.09,-485 793.09,-485 787.09,-485 781.09,-479 781.09,-473 781.09,-473 781.09,-461 781.09,-461 781.09,-455 787.09,-449 793.09,-449 793.09,-449 877.87,-449 877.87,-449 883.87,-449 889.87,-455 889.87,-461 889.87,-461 889.87,-473 889.87,-473 889.87,-479 883.87,-485 877.87,-485"/>
<text xml:space="preserve" text-anchor="middle" x="835.48" y="-461.98" font-family="Helvetica,sans-Serif" font-size="12.00" fill="#edf2ff">Domain Services</text>
</g>
<!-- invariants -->
<g id="node9" class="node">
<title>invariants</title>
<path fill="#232838" stroke="#60708a" d="M1068.4,-447C1068.4,-447 970.87,-447 970.87,-447 964.87,-447 958.87,-441 958.87,-435 958.87,-435 958.87,-423 958.87,-423 958.87,-417 964.87,-411 970.87,-411 970.87,-411 1068.4,-411 1068.4,-411 1074.4,-411 1080.4,-417 1080.4,-423 1080.4,-423 1080.4,-435 1080.4,-435 1080.4,-441 1074.4,-447 1068.4,-447"/>
<text xml:space="preserve" text-anchor="middle" x="1019.64" y="-423.98" font-family="Helvetica,sans-Serif" font-size="12.00" fill="#edf2ff">Business Invariants</text>
</g>
<!-- repo_port -->
<g id="node10" class="node">
<title>repo_port</title>
<path fill="#232838" stroke="#60708a" d="M873.37,-163C873.37,-163 797.59,-163 797.59,-163 791.59,-163 785.59,-157 785.59,-151 785.59,-151 785.59,-139 785.59,-139 785.59,-133 791.59,-127 797.59,-127 797.59,-127 873.37,-127 873.37,-127 879.37,-127 885.37,-133 885.37,-139 885.37,-139 885.37,-151 885.37,-151 885.37,-157 879.37,-163 873.37,-163"/>
<text xml:space="preserve" text-anchor="middle" x="835.48" y="-139.97" font-family="Helvetica,sans-Serif" font-size="12.00" fill="#edf2ff">Repository Port</text>
</g>
<!-- payment_port -->
<g id="node11" class="node">
<title>payment_port</title>
<path fill="#232838" stroke="#60708a" d="M868.12,-87C868.12,-87 802.84,-87 802.84,-87 796.84,-87 790.84,-81 790.84,-75 790.84,-75 790.84,-63 790.84,-63 790.84,-57 796.84,-51 802.84,-51 802.84,-51 868.12,-51 868.12,-51 874.12,-51 880.12,-57 880.12,-63 880.12,-63 880.12,-75 880.12,-75 880.12,-81 874.12,-87 868.12,-87"/>
<text xml:space="preserve" text-anchor="middle" x="835.48" y="-63.98" font-family="Helvetica,sans-Serif" font-size="12.00" fill="#edf2ff">Payment Port</text>
</g>
<!-- notification_port -->
<g id="node12" class="node">
<title>notification_port</title>
<path fill="#232838" stroke="#60708a" d="M874.5,-239C874.5,-239 796.47,-239 796.47,-239 790.47,-239 784.47,-233 784.47,-227 784.47,-227 784.47,-215 784.47,-215 784.47,-209 790.47,-203 796.47,-203 796.47,-203 874.5,-203 874.5,-203 880.5,-203 886.5,-209 886.5,-215 886.5,-215 886.5,-227 886.5,-227 886.5,-233 880.5,-239 874.5,-239"/>
<text xml:space="preserve" text-anchor="middle" x="835.48" y="-215.97" font-family="Helvetica,sans-Serif" font-size="12.00" fill="#edf2ff">Notification Port</text>
</g>
<!-- job_port -->
<g id="node13" class="node">
<title>job_port</title>
<path fill="#232838" stroke="#60708a" d="M854.25,-315C854.25,-315 816.72,-315 816.72,-315 810.72,-315 804.72,-309 804.72,-303 804.72,-303 804.72,-291 804.72,-291 804.72,-285 810.72,-279 816.72,-279 816.72,-279 854.25,-279 854.25,-279 860.25,-279 866.25,-285 866.25,-291 866.25,-291 866.25,-303 866.25,-303 866.25,-309 860.25,-315 854.25,-315"/>
<text xml:space="preserve" text-anchor="middle" x="835.48" y="-291.98" font-family="Helvetica,sans-Serif" font-size="12.00" fill="#edf2ff">Job Port</text>
</g>
<!-- db_adapter -->
<g id="node14" class="node">
<title>db_adapter</title>
<path fill="#232838" stroke="#60708a" d="M650.84,-128C650.84,-128 550.31,-128 550.31,-128 544.31,-128 538.31,-122 538.31,-116 538.31,-116 538.31,-104 538.31,-104 538.31,-98 544.31,-92 550.31,-92 550.31,-92 650.84,-92 650.84,-92 656.84,-92 662.84,-98 662.84,-104 662.84,-104 662.84,-116 662.84,-116 662.84,-122 656.84,-128 650.84,-128"/>
<text xml:space="preserve" text-anchor="middle" x="600.58" y="-104.97" font-family="Helvetica,sans-Serif" font-size="12.00" fill="#edf2ff">Persistence Adapter</text>
</g>
<!-- payment_adapter -->
<g id="node15" class="node">
<title>payment_adapter</title>
<path fill="#232838" stroke="#60708a" d="M642.97,-52C642.97,-52 558.19,-52 558.19,-52 552.19,-52 546.19,-46 546.19,-40 546.19,-40 546.19,-28 546.19,-28 546.19,-22 552.19,-16 558.19,-16 558.19,-16 642.97,-16 642.97,-16 648.97,-16 654.97,-22 654.97,-28 654.97,-28 654.97,-40 654.97,-40 654.97,-46 648.97,-52 642.97,-52"/>
<text xml:space="preserve" text-anchor="middle" x="600.58" y="-28.98" font-family="Helvetica,sans-Serif" font-size="12.00" fill="#edf2ff">Payment Adapter</text>
</g>
<!-- email_adapter -->
<g id="node16" class="node">
<title>email_adapter</title>
<path fill="#232838" stroke="#60708a" d="M634.72,-204C634.72,-204 566.44,-204 566.44,-204 560.44,-204 554.44,-198 554.44,-192 554.44,-192 554.44,-180 554.44,-180 554.44,-174 560.44,-168 566.44,-168 566.44,-168 634.72,-168 634.72,-168 640.72,-168 646.72,-174 646.72,-180 646.72,-180 646.72,-192 646.72,-192 646.72,-198 640.72,-204 634.72,-204"/>
<text xml:space="preserve" text-anchor="middle" x="600.58" y="-180.97" font-family="Helvetica,sans-Serif" font-size="12.00" fill="#edf2ff">Email Adapter</text>
</g>
<!-- queue_adapter -->
<g id="node17" class="node">
<title>queue_adapter</title>
<path fill="#232838" stroke="#60708a" d="M637.34,-280C637.34,-280 563.81,-280 563.81,-280 557.81,-280 551.81,-274 551.81,-268 551.81,-268 551.81,-256 551.81,-256 551.81,-250 557.81,-244 563.81,-244 563.81,-244 637.34,-244 637.34,-244 643.34,-244 649.34,-250 649.34,-256 649.34,-256 649.34,-268 649.34,-268 649.34,-274 643.34,-280 637.34,-280"/>
<text xml:space="preserve" text-anchor="middle" x="600.58" y="-256.98" font-family="Helvetica,sans-Serif" font-size="12.00" fill="#edf2ff">Queue Adapter</text>
</g>
<!-- observability -->
<g id="node18" class="node">
<title>observability</title>
<path fill="#232838" stroke="#60708a" d="M319.56,-368C319.56,-368 256.53,-368 256.53,-368 250.53,-368 244.53,-362 244.53,-356 244.53,-356 244.53,-344 244.53,-344 244.53,-338 250.53,-332 256.53,-332 256.53,-332 319.56,-332 319.56,-332 325.56,-332 331.56,-338 331.56,-344 331.56,-344 331.56,-356 331.56,-356 331.56,-362 325.56,-368 319.56,-368"/>
<text xml:space="preserve" text-anchor="middle" x="288.05" y="-344.98" font-family="Helvetica,sans-Serif" font-size="12.00" fill="#edf2ff">Observability</text>
</g>
<!-- tests -->
<g id="node19" class="node">
<title>tests</title>
<path fill="#232838" stroke="#60708a" d="M325.94,-292C325.94,-292 250.16,-292 250.16,-292 244.16,-292 238.16,-286 238.16,-280 238.16,-280 238.16,-268 238.16,-268 238.16,-262 244.16,-256 250.16,-256 250.16,-256 325.94,-256 325.94,-256 331.94,-256 337.94,-262 337.94,-268 337.94,-268 337.94,-280 337.94,-280 337.94,-286 331.94,-292 325.94,-292"/>
<text xml:space="preserve" text-anchor="middle" x="288.05" y="-268.98" font-family="Helvetica,sans-Serif" font-size="12.00" fill="#edf2ff">Boundary Tests</text>
</g>
<!-- adr -->
<g id="node20" class="node">
<title>adr</title>
<path fill="#232838" stroke="#60708a" d="M350.31,-216C350.31,-216 225.78,-216 225.78,-216 219.78,-216 213.78,-210 213.78,-204 213.78,-204 213.78,-192 213.78,-192 213.78,-186 219.78,-180 225.78,-180 225.78,-180 350.31,-180 350.31,-180 356.31,-180 362.31,-186 362.31,-192 362.31,-192 362.31,-204 362.31,-204 362.31,-210 356.31,-216 350.31,-216"/>
<text xml:space="preserve" text-anchor="middle" x="288.05" y="-192.97" font-family="Helvetica,sans-Serif" font-size="12.00" fill="#edf2ff">ADRs + Boundary Rules</text>
</g>
</g>
</svg>
