<?xml version="1.0" encoding="UTF-8" standalone="no"?>
<!DOCTYPE svg PUBLIC "-//W3C//DTD SVG 1.1//EN"
 "http://www.w3.org/Graphics/SVG/1.1/DTD/svg11.dtd">
<!-- Generated by graphviz version 15.0.0 (20260523.1842)
 -->
<!-- Title: architecture Pages: 1 -->
<svg width="1372pt" height="1144pt"
 viewBox="0.00 0.00 1372.00 1144.00" xmlns="http://www.w3.org/2000/svg" xmlns:xlink="http://www.w3.org/1999/xlink">
<g id="graph0" class="graph" transform="scale(1 1) rotate(0) translate(4 1139.63)">
<title>architecture</title>
<polygon fill="white" stroke="none" points="-4,4 -4,-1139.63 1367.82,-1139.63 1367.82,4 -4,4"/>
<!-- _root -->
<g id="node1" class="node">
<title>_root</title>
<ellipse fill="none" stroke="black" cx="174.19" cy="-412.63" rx="30.37" ry="18"/>
<text xml:space="preserve" text-anchor="middle" x="174.19" y="-407.58" font-family="Times,serif" font-size="14.00">_root</text>
</g>
<!-- agent&#45;runtime -->
<g id="node2" class="node">
<title>agent&#45;runtime</title>
<ellipse fill="none" stroke="black" cx="303.68" cy="-742.63" rx="63.12" ry="18"/>
<text xml:space="preserve" text-anchor="middle" x="303.68" y="-737.58" font-family="Times,serif" font-size="14.00">agent&#45;runtime</text>
</g>
<!-- _root&#45;&gt;agent&#45;runtime -->
<g id="edge1" class="edge">
<title>_root&#45;&gt;agent&#45;runtime</title>
<path fill="none" stroke="black" d="M181.29,-430.36C191.68,-465.52 214.29,-544.97 240.56,-609.63 255.53,-646.49 277.05,-687.43 290.43,-714.24"/>
<polygon fill="black" stroke="black" points="287.24,-715.68 294.8,-723.11 293.53,-712.6 287.24,-715.68"/>
</g>
<!-- connectors -->
<g id="node4" class="node">
<title>connectors</title>
<ellipse fill="none" stroke="black" cx="453.64" cy="-273.63" rx="50.84" ry="18"/>
<text xml:space="preserve" text-anchor="middle" x="453.64" y="-268.58" font-family="Times,serif" font-size="14.00">connectors</text>
</g>
<!-- _root&#45;&gt;connectors -->
<g id="edge2" class="edge">
<title>_root&#45;&gt;connectors</title>
<path fill="none" stroke="black" d="M178.74,-394.66C186.01,-367.29 205,-317.19 240.56,-293.63 288.25,-262.02 355.28,-257.95 401.14,-261.67"/>
<polygon fill="black" stroke="black" points="400.52,-265.13 410.82,-262.63 401.21,-258.16 400.52,-265.13"/>
</g>
<!-- documents -->
<g id="node5" class="node">
<title>documents</title>
<ellipse fill="none" stroke="black" cx="618.96" cy="-253.63" rx="51.35" ry="18"/>
<text xml:space="preserve" text-anchor="middle" x="618.96" y="-248.58" font-family="Times,serif" font-size="14.00">documents</text>
</g>
<!-- _root&#45;&gt;documents -->
<g id="edge3" class="edge">
<title>_root&#45;&gt;documents</title>
<path fill="none" stroke="black" d="M176.73,-394.29C180.91,-360.14 195.36,-288.77 240.56,-255.63 341.12,-181.9 500.63,-211.67 575.94,-235.53"/>
<polygon fill="black" stroke="black" points="574.83,-238.85 585.42,-238.67 577.03,-232.2 574.83,-238.85"/>
</g>
<!-- google&#45;workspace -->
<g id="node6" class="node">
<title>google&#45;workspace</title>
<ellipse fill="none" stroke="black" cx="618.96" cy="-647.63" rx="78.48" ry="18"/>
<text xml:space="preserve" text-anchor="middle" x="618.96" y="-642.58" font-family="Times,serif" font-size="14.00">google&#45;workspace</text>
</g>
<!-- _root&#45;&gt;google&#45;workspace -->
<g id="edge4" class="edge">
<title>_root&#45;&gt;google&#45;workspace</title>
<path fill="none" stroke="black" d="M185.9,-429.57C196.79,-449.35 215.61,-481.1 240.56,-500.63 336.31,-575.59 476.63,-612.45 556.44,-631.18"/>
<polygon fill="black" stroke="black" points="555.28,-634.5 565.81,-633.36 556.86,-627.69 555.28,-634.5"/>
</g>
<!-- indexing -->
<g id="node7" class="node">
<title>indexing</title>
<ellipse fill="none" stroke="black" cx="1163.53" cy="-131.63" rx="43.16" ry="18"/>
<text xml:space="preserve" text-anchor="middle" x="1163.53" y="-126.58" font-family="Times,serif" font-size="14.00">indexing</text>
</g>
<!-- _root&#45;&gt;indexing -->
<g id="edge5" class="edge">
<title>_root&#45;&gt;indexing</title>
<path fill="none" stroke="black" d="M175.77,-394.51C178.45,-327.5 191.69,-97.18 240.56,-47.63 308.03,20.79 356.55,-5.63 452.64,-5.63 452.64,-5.63 452.64,-5.63 818.03,-5.63 940.48,-5.63 1075.03,-72.72 1133.14,-109.2"/>
<polygon fill="black" stroke="black" points="1131.19,-112.11 1141.48,-114.6 1134.99,-106.23 1131.19,-112.11"/>
</g>
<!-- ingestion -->
<g id="node8" class="node">
<title>ingestion</title>
<ellipse fill="none" stroke="black" cx="1008.96" cy="-131.63" rx="44.7" ry="18"/>
<text xml:space="preserve" text-anchor="middle" x="1008.96" y="-126.58" font-family="Times,serif" font-size="14.00">ingestion</text>
</g>
<!-- _root&#45;&gt;ingestion -->
<g id="edge6" class="edge">
<title>_root&#45;&gt;ingestion</title>
<path fill="none" stroke="black" d="M176.06,-394.51C179.73,-332.33 195.77,-131.22 240.56,-89.63 310.23,-24.93 357.56,-61.63 452.64,-61.63 452.64,-61.63 452.64,-61.63 619.96,-61.63 747.79,-61.63 896.47,-94.34 966.92,-115.39"/>
<polygon fill="black" stroke="black" points="965.5,-118.62 976.09,-118.22 967.56,-111.93 965.5,-118.62"/>
</g>
<!-- interaction&#45;surfaces -->
<g id="node9" class="node">
<title>interaction&#45;surfaces</title>
<ellipse fill="none" stroke="black" cx="817.03" cy="-376.63" rx="83.6" ry="18"/>
<text xml:space="preserve" text-anchor="middle" x="817.03" y="-371.58" font-family="Times,serif" font-size="14.00">interaction&#45;surfaces</text>
</g>
<!-- _root&#45;&gt;interaction&#45;surfaces -->
<g id="edge7" class="edge">
<title>_root&#45;&gt;interaction&#45;surfaces</title>
<path fill="none" stroke="black" d="M203.97,-408C294.11,-398.72 573.75,-382.36 721.83,-376.97"/>
<polygon fill="black" stroke="black" points="721.75,-380.48 731.62,-376.63 721.5,-373.48 721.75,-380.48"/>
</g>
<!-- memory -->
<g id="node10" class="node">
<title>memory</title>
<ellipse fill="none" stroke="black" cx="1008.96" cy="-851.63" rx="42.65" ry="18"/>
<text xml:space="preserve" text-anchor="middle" x="1008.96" y="-846.58" font-family="Times,serif" font-size="14.00">memory</text>
</g>
<!-- _root&#45;&gt;memory -->
<g id="edge8" class="edge">
<title>_root&#45;&gt;memory</title>
<path fill="none" stroke="black" d="M175.65,-430.84C177.69,-500.85 188.33,-749.68 240.56,-805.63 442.09,-1021.54 609.96,-935.03 900.63,-882.63 921.14,-878.93 942.86,-871.55 961.35,-864.75"/>
<polygon fill="black" stroke="black" points="962.55,-868.04 970.69,-861.26 960.1,-861.48 962.55,-868.04"/>
</g>
<!-- model&#45;providers -->
<g id="node11" class="node">
<title>model&#45;providers</title>
<ellipse fill="none" stroke="black" cx="1008.96" cy="-460.63" rx="72.34" ry="18"/>
<text xml:space="preserve" text-anchor="middle" x="1008.96" y="-455.58" font-family="Times,serif" font-size="14.00">model&#45;providers</text>
</g>
<!-- _root&#45;&gt;model&#45;providers -->
<g id="edge9" class="edge">
<title>_root&#45;&gt;model&#45;providers</title>
<path fill="none" stroke="black" d="M204.65,-412.11C255.22,-416.61 361.87,-431.63 452.64,-431.63 452.64,-431.63 452.64,-431.63 619.96,-431.63 731.98,-431.63 861.96,-440.05 939.44,-448.42"/>
<polygon fill="black" stroke="black" points="938.66,-451.85 948.98,-449.48 939.43,-444.9 938.66,-451.85"/>
</g>
<!-- observability -->
<g id="node12" class="node">
<title>observability</title>
<ellipse fill="none" stroke="black" cx="1304.79" cy="-874.63" rx="59.03" ry="18"/>
<text xml:space="preserve" text-anchor="middle" x="1304.79" y="-869.58" font-family="Times,serif" font-size="14.00">observability</text>
</g>
<!-- _root&#45;&gt;observability -->
<g id="edge10" class="edge">
<title>_root&#45;&gt;observability</title>
<path fill="none" stroke="black" d="M175.77,-430.94C178.44,-513.1 191.67,-845.68 240.56,-936.63 299.22,-1045.78 328.72,-1117.63 452.64,-1117.63 452.64,-1117.63 452.64,-1117.63 1009.96,-1117.63 1143.6,-1117.63 1246.92,-965.57 1286.39,-901.91"/>
<polygon fill="black" stroke="black" points="1289.13,-904.13 1291.37,-893.78 1283.16,-900.47 1289.13,-904.13"/>
</g>
<!-- resilience -->
<g id="node13" class="node">
<title>resilience</title>
<ellipse fill="none" stroke="black" cx="1163.53" cy="-747.63" rx="46.23" ry="18"/>
<text xml:space="preserve" text-anchor="middle" x="1163.53" y="-742.58" font-family="Times,serif" font-size="14.00">resilience</text>
</g>
<!-- _root&#45;&gt;resilience -->
<g id="edge11" class="edge">
<title>_root&#45;&gt;resilience</title>
<path fill="none" stroke="black" d="M174.91,-394.4C175.4,-354.37 182.89,-259 240.56,-216.63 404.23,-96.37 500.04,-178.8 697.44,-226.63 878.08,-270.4 962.44,-249.73 1081.3,-392.63 1123.03,-442.81 1150.28,-642.94 1159.27,-718.53"/>
<polygon fill="black" stroke="black" points="1155.74,-718.51 1160.38,-728.04 1162.7,-717.7 1155.74,-718.51"/>
</g>
<!-- retrieval -->
<g id="node14" class="node">
<title>retrieval</title>
<ellipse fill="none" stroke="black" cx="1163.53" cy="-828.63" rx="41.63" ry="18"/>
<text xml:space="preserve" text-anchor="middle" x="1163.53" y="-823.58" font-family="Times,serif" font-size="14.00">retrieval</text>
</g>
<!-- _root&#45;&gt;retrieval -->
<g id="edge12" class="edge">
<title>_root&#45;&gt;retrieval</title>
<path fill="none" stroke="black" d="M175.53,-430.96C177.24,-508.11 187.04,-803.82 240.56,-877.63 287.64,-942.56 324.71,-938.33 402.8,-956.63 618.75,-1007.24 684.55,-971.72 900.63,-921.63 982.03,-902.76 1004.87,-903.4 1081.3,-869.63 1095.66,-863.28 1110.53,-854.78 1123.56,-847.04"/>
<polygon fill="black" stroke="black" points="1125.04,-850.24 1131.83,-842.1 1121.45,-844.23 1125.04,-850.24"/>
</g>
<!-- scheduler -->
<g id="node15" class="node">
<title>scheduler</title>
<ellipse fill="none" stroke="black" cx="303.68" cy="-329.63" rx="46.23" ry="18"/>
<text xml:space="preserve" text-anchor="middle" x="303.68" y="-324.58" font-family="Times,serif" font-size="14.00">scheduler</text>
</g>
<!-- _root&#45;&gt;scheduler -->
<g id="edge13" class="edge">
<title>_root&#45;&gt;scheduler</title>
<path fill="none" stroke="black" d="M186.74,-395.9C199.44,-382.7 220.67,-365.35 240.56,-352.63 244.87,-349.87 249.45,-347.15 254.09,-344.58"/>
<polygon fill="black" stroke="black" points="255.72,-347.67 262.93,-339.91 252.45,-341.48 255.72,-347.67"/>
</g>
<!-- self&#45;learning -->
<g id="node16" class="node">
<title>self&#45;learning</title>
<ellipse fill="none" stroke="black" cx="303.68" cy="-125.63" rx="57.49" ry="18"/>
<text xml:space="preserve" text-anchor="middle" x="303.68" y="-120.58" font-family="Times,serif" font-size="14.00">self&#45;learning</text>
</g>
<!-- _root&#45;&gt;self&#45;learning -->
<g id="edge14" class="edge">
<title>_root&#45;&gt;self&#45;learning</title>
<path fill="none" stroke="black" d="M174.97,-394.46C175.04,-347.78 180.59,-223.85 240.56,-148.63 242.31,-146.43 244.25,-144.37 246.34,-142.44"/>
<polygon fill="black" stroke="black" points="248.08,-145.52 253.81,-136.61 243.77,-140.01 248.08,-145.52"/>
</g>
<!-- skills -->
<g id="node17" class="node">
<title>skills</title>
<ellipse fill="none" stroke="black" cx="618.96" cy="-815.63" rx="30.37" ry="18"/>
<text xml:space="preserve" text-anchor="middle" x="618.96" y="-810.58" font-family="Times,serif" font-size="14.00">skills</text>
</g>
<!-- _root&#45;&gt;skills -->
<g id="edge15" class="edge">
<title>_root&#45;&gt;skills</title>
<path fill="none" stroke="black" d="M175.99,-431.04C179.25,-496.93 193.59,-719.73 240.56,-769.63 328.98,-863.58 502.4,-840.88 579.46,-824.89"/>
<polygon fill="black" stroke="black" points="580.03,-828.35 589.07,-822.82 578.55,-821.51 580.03,-828.35"/>
</g>
<!-- tools -->
<g id="node18" class="node">
<title>tools</title>
<ellipse fill="none" stroke="black" cx="453.64" cy="-530.63" rx="28.83" ry="18"/>
<text xml:space="preserve" text-anchor="middle" x="453.64" y="-525.58" font-family="Times,serif" font-size="14.00">tools</text>
</g>
<!-- _root&#45;&gt;tools -->
<g id="edge16" class="edge">
<title>_root&#45;&gt;tools</title>
<path fill="none" stroke="black" d="M197.1,-424.95C209.18,-434.29 224.89,-446.39 240.56,-454.63 299.41,-485.59 375.05,-505.22 418.27,-517.49"/>
<polygon fill="black" stroke="black" points="417.27,-520.84 427.84,-520.26 419.21,-514.12 417.27,-520.84"/>
</g>
<!-- agent&#45;runtime&#45;&gt;_root -->
<g id="edge17" class="edge">
<title>agent&#45;runtime&#45;&gt;_root</title>
<path fill="none" stroke="black" d="M288.89,-724.83C275.44,-702.34 254.96,-663.1 240.56,-627.63 214.41,-563.26 191.89,-484.24 181.43,-442.03"/>
<polygon fill="black" stroke="black" points="184.85,-441.28 179.1,-432.37 178.04,-442.91 184.85,-441.28"/>
</g>
<!-- agent&#45;runtime&#45;&gt;google&#45;workspace -->
<g id="edge18" class="edge">
<title>agent&#45;runtime&#45;&gt;google&#45;workspace</title>
<path fill="none" stroke="black" d="M322.49,-725.28C340.94,-708.46 371.42,-683.76 402.8,-671.63 442.53,-656.28 489.25,-649.81 528.99,-647.38"/>
<polygon fill="black" stroke="black" points="528.95,-650.89 538.75,-646.86 528.58,-643.9 528.95,-650.89"/>
</g>
<!-- agent&#45;runtime&#45;&gt;memory -->
<g id="edge19" class="edge">
<title>agent&#45;runtime&#45;&gt;memory</title>
<path fill="none" stroke="black" d="M333.5,-758.73C352.21,-771.86 377.72,-789.51 402.8,-800.63 591.62,-884.31 846.27,-864.43 955.09,-854.6"/>
<polygon fill="black" stroke="black" points="955.25,-858.1 964.89,-853.7 954.61,-851.13 955.25,-858.1"/>
</g>
<!-- agent&#45;runtime&#45;&gt;model&#45;providers -->
<g id="edge20" class="edge">
<title>agent&#45;runtime&#45;&gt;model&#45;providers</title>
<path fill="none" stroke="black" d="M366.92,-741.42C462.12,-738.84 639.04,-730.98 697.44,-707.63 822.59,-657.58 937.85,-539.73 985.21,-486.97"/>
<polygon fill="black" stroke="black" points="987.71,-489.43 991.73,-479.63 982.48,-484.78 987.71,-489.43"/>
</g>
<!-- agent&#45;runtime&#45;&gt;observability -->
<g id="edge21" class="edge">
<title>agent&#45;runtime&#45;&gt;observability</title>
<path fill="none" stroke="black" d="M320.88,-760.25C338.29,-782.3 368.17,-818.88 402.8,-839.63 457.05,-872.14 477.91,-866.43 540.48,-875.63 794.02,-912.91 1100.03,-888.17 1234.6,-877.71"/>
<polygon fill="black" stroke="black" points="1234.72,-881.21 1244.42,-876.95 1234.18,-874.23 1234.72,-881.21"/>
</g>
<!-- agent&#45;runtime&#45;&gt;resilience -->
<g id="edge22" class="edge">
<title>agent&#45;runtime&#45;&gt;resilience</title>
<path fill="none" stroke="black" d="M365.9,-746.23C378.12,-746.81 390.87,-747.33 402.8,-747.63 665.56,-754.32 979.6,-750.6 1105.87,-748.62"/>
<polygon fill="black" stroke="black" points="1105.68,-752.12 1115.62,-748.46 1105.57,-745.12 1105.68,-752.12"/>
</g>
<!-- agent&#45;runtime&#45;&gt;skills -->
<g id="edge23" class="edge">
<title>agent&#45;runtime&#45;&gt;skills</title>
<path fill="none" stroke="black" d="M356.47,-752.92C371.3,-757.57 387.58,-762.68 402.8,-766.63 464.78,-782.73 538.41,-794.97 581.49,-804.02"/>
<polygon fill="black" stroke="black" points="580.54,-807.4 591.05,-806.11 582.03,-800.56 580.54,-807.4"/>
</g>
<!-- agent&#45;runtime&#45;&gt;tools -->
<g id="edge24" class="edge">
<title>agent&#45;runtime&#45;&gt;tools</title>
<path fill="none" stroke="black" d="M314.85,-724.43C338.95,-686.2 399.91,-598.45 432.06,-555.27"/>
<polygon fill="black" stroke="black" points="434.7,-557.59 437.92,-547.49 429.11,-553.37 434.7,-557.59"/>
</g>
<!-- compliance -->
<g id="node3" class="node">
<title>compliance</title>
<ellipse fill="none" stroke="black" cx="53.91" cy="-412.63" rx="53.91" ry="18"/>
<text xml:space="preserve" text-anchor="middle" x="53.91" y="-407.58" font-family="Times,serif" font-size="14.00">compliance</text>
</g>
<!-- compliance&#45;&gt;_root -->
<g id="edge25" class="edge">
<title>compliance&#45;&gt;_root</title>
<path fill="none" stroke="black" d="M108.17,-412.63C116.23,-412.63 124.44,-412.63 132.19,-412.63"/>
<polygon fill="black" stroke="black" points="132,-416.13 142,-412.63 132,-409.13 132,-416.13"/>
</g>
<!-- connectors&#45;&gt;_root -->
<g id="edge26" class="edge">
<title>connectors&#45;&gt;_root</title>
<path fill="none" stroke="black" d="M402.96,-275.75C357.07,-275.84 288.88,-279.6 240.56,-311.63 214.18,-329.11 196.92,-361.19 186.79,-384.67"/>
<polygon fill="black" stroke="black" points="183.65,-383.1 183.09,-393.68 190.13,-385.76 183.65,-383.1"/>
</g>
<!-- connectors&#45;&gt;documents -->
<g id="edge27" class="edge">
<title>connectors&#45;&gt;documents</title>
<path fill="none" stroke="black" d="M502.32,-267.79C519.94,-265.63 540.13,-263.16 558.66,-260.89"/>
<polygon fill="black" stroke="black" points="558.94,-264.38 568.44,-259.69 558.09,-257.44 558.94,-264.38"/>
</g>
<!-- connectors&#45;&gt;ingestion -->
<g id="edge28" class="edge">
<title>connectors&#45;&gt;ingestion</title>
<path fill="none" stroke="black" d="M467.95,-255.93C483.21,-237.06 510.08,-207.98 540.48,-193.63 678.26,-128.59 862.75,-125.35 953.24,-128.43"/>
<polygon fill="black" stroke="black" points="952.95,-131.92 963.08,-128.8 953.22,-124.92 952.95,-131.92"/>
</g>
<!-- connectors&#45;&gt;observability -->
<g id="edge29" class="edge">
<title>connectors&#45;&gt;observability</title>
<path fill="none" stroke="black" d="M476.99,-257.29C493.59,-246.22 517.27,-232.57 540.48,-226.63 608.06,-209.34 627.89,-221.17 697.44,-226.63 927.26,-244.69 1046.14,-145.24 1209.76,-307.63 1286.74,-384.03 1300.79,-739.55 1303.27,-845.05"/>
<polygon fill="black" stroke="black" points="1299.77,-844.93 1303.49,-854.85 1306.77,-844.78 1299.77,-844.93"/>
</g>
<!-- documents&#45;&gt;_root -->
<g id="edge30" class="edge">
<title>documents&#45;&gt;_root</title>
<path fill="none" stroke="black" d="M572.64,-245.43C496.05,-228.84 339.67,-200.95 240.56,-273.63 204.44,-300.11 187.96,-351 180.66,-383.46"/>
<polygon fill="black" stroke="black" points="177.28,-382.52 178.67,-393.03 184.13,-383.95 177.28,-382.52"/>
</g>
<!-- documents&#45;&gt;indexing -->
<g id="edge31" class="edge">
<title>documents&#45;&gt;indexing</title>
<path fill="none" stroke="black" d="M665.89,-246.02C749.31,-231.8 931.03,-198.92 1081.3,-158.63 1093.72,-155.3 1107.02,-151.14 1119.19,-147.08"/>
<polygon fill="black" stroke="black" points="1120.21,-150.43 1128.56,-143.91 1117.96,-143.8 1120.21,-150.43"/>
</g>
<!-- documents&#45;&gt;interaction&#45;surfaces -->
<g id="edge32" class="edge">
<title>documents&#45;&gt;interaction&#45;surfaces</title>
<path fill="none" stroke="black" d="M651.03,-268.03C687.9,-288.94 748.99,-327.27 785.59,-352.48"/>
<polygon fill="black" stroke="black" points="783.33,-355.18 793.54,-358.04 787.34,-349.44 783.33,-355.18"/>
</g>
<!-- google&#45;workspace&#45;&gt;_root -->
<g id="edge33" class="edge">
<title>google&#45;workspace&#45;&gt;_root</title>
<path fill="none" stroke="black" d="M544.63,-641.47C463.36,-626.85 331.75,-590.02 240.56,-518.63 214.62,-498.33 195.32,-464.83 184.65,-440.7"/>
<polygon fill="black" stroke="black" points="188,-439.66 180.94,-431.76 181.53,-442.34 188,-439.66"/>
</g>
<!-- indexing&#45;&gt;_root -->
<g id="edge34" class="edge">
<title>indexing&#45;&gt;_root</title>
<path fill="none" stroke="black" d="M1132.36,-119C1073.84,-90.13 939.94,-23.63 818.03,-23.63 452.64,-23.63 452.64,-23.63 452.64,-23.63 356.55,-23.63 308.03,2.79 240.56,-65.63 195.85,-110.97 180.96,-307.62 176.7,-383.14"/>
<polygon fill="black" stroke="black" points="173.23,-382.5 176.18,-392.67 180.22,-382.87 173.23,-382.5"/>
</g>
<!-- indexing&#45;&gt;observability -->
<g id="edge35" class="edge">
<title>indexing&#45;&gt;observability</title>
<path fill="none" stroke="black" d="M1180.56,-148.65C1190.64,-160.38 1202.98,-176.83 1209.76,-193.63 1258.86,-315.23 1292.95,-729.84 1301.62,-844.84"/>
<polygon fill="black" stroke="black" points="1298.12,-844.96 1302.36,-854.68 1305.1,-844.44 1298.12,-844.96"/>
</g>
<!-- ingestion&#45;&gt;_root -->
<g id="edge36" class="edge">
<title>ingestion&#45;&gt;_root</title>
<path fill="none" stroke="black" d="M966.1,-126.16C895.33,-112.09 747.3,-79.63 619.96,-79.63 452.64,-79.63 452.64,-79.63 452.64,-79.63 357.56,-79.63 310.23,-42.93 240.56,-107.63 199.95,-145.34 182.97,-314.24 177.42,-383.29"/>
<polygon fill="black" stroke="black" points="173.95,-382.85 176.66,-393.09 180.93,-383.39 173.95,-382.85"/>
</g>
<!-- ingestion&#45;&gt;indexing -->
<g id="edge37" class="edge">
<title>ingestion&#45;&gt;indexing</title>
<path fill="none" stroke="black" d="M1054.09,-131.63C1071.13,-131.63 1090.78,-131.63 1108.64,-131.63"/>
<polygon fill="black" stroke="black" points="1108.56,-135.13 1118.56,-131.63 1108.56,-128.13 1108.56,-135.13"/>
</g>
<!-- interaction&#45;surfaces&#45;&gt;_root -->
<g id="edge38" class="edge">
<title>interaction&#45;surfaces&#45;&gt;_root</title>
<path fill="none" stroke="black" d="M742.65,-385.24C607.3,-396.15 322.5,-411.83 216.28,-413.85"/>
<polygon fill="black" stroke="black" points="216.27,-410.35 206.33,-414 216.38,-417.35 216.27,-410.35"/>
</g>
<!-- interaction&#45;surfaces&#45;&gt;agent&#45;runtime -->
<g id="edge39" class="edge">
<title>interaction&#45;surfaces&#45;&gt;agent&#45;runtime</title>
<path fill="none" stroke="black" d="M814.93,-394.76C810.66,-447.76 790.38,-603.22 697.44,-674.63 592.87,-754.97 531.45,-680.68 402.8,-709.63 386.13,-713.38 368.31,-718.9 352.5,-724.35"/>
<polygon fill="black" stroke="black" points="351.59,-720.96 343.33,-727.59 353.93,-727.56 351.59,-720.96"/>
</g>
<!-- interaction&#45;surfaces&#45;&gt;documents -->
<g id="edge40" class="edge">
<title>interaction&#45;surfaces&#45;&gt;documents</title>
<path fill="none" stroke="black" d="M780.94,-359.94C743.31,-338.35 684.24,-301.18 649.08,-276.87"/>
<polygon fill="black" stroke="black" points="651.27,-274.13 641.08,-271.25 647.25,-279.86 651.27,-274.13"/>
</g>
<!-- interaction&#45;surfaces&#45;&gt;ingestion -->
<g id="edge41" class="edge">
<title>interaction&#45;surfaces&#45;&gt;ingestion</title>
<path fill="none" stroke="black" d="M832,-358.62C865.15,-315.84 948.74,-208.02 987.56,-157.94"/>
<polygon fill="black" stroke="black" points="990.2,-160.26 993.56,-150.21 984.66,-155.97 990.2,-160.26"/>
</g>
<!-- interaction&#45;surfaces&#45;&gt;memory -->
<g id="edge42" class="edge">
<title>interaction&#45;surfaces&#45;&gt;memory</title>
<path fill="none" stroke="black" d="M825.36,-394.96C854.36,-467.48 961.2,-734.69 996.53,-823.05"/>
<polygon fill="black" stroke="black" points="993.23,-824.22 1000.19,-832.2 999.73,-821.62 993.23,-824.22"/>
</g>
<!-- interaction&#45;surfaces&#45;&gt;model&#45;providers -->
<g id="edge43" class="edge">
<title>interaction&#45;surfaces&#45;&gt;model&#45;providers</title>
<path fill="none" stroke="black" d="M855.1,-393.03C885.59,-406.51 928.96,-425.69 961.72,-440.18"/>
<polygon fill="black" stroke="black" points="960,-443.25 970.57,-444.09 962.84,-436.85 960,-443.25"/>
</g>
<!-- interaction&#45;surfaces&#45;&gt;observability -->
<g id="edge44" class="edge">
<title>interaction&#45;surfaces&#45;&gt;observability</title>
<path fill="none" stroke="black" d="M877.97,-363.92C935.28,-355.28 1021.57,-351.81 1081.3,-392.63 1241.56,-502.16 1288.72,-757.72 1300.4,-844.89"/>
<polygon fill="black" stroke="black" points="1296.93,-845.28 1301.66,-854.76 1303.87,-844.4 1296.93,-845.28"/>
</g>
<!-- interaction&#45;surfaces&#45;&gt;retrieval -->
<g id="edge45" class="edge">
<title>interaction&#45;surfaces&#45;&gt;retrieval</title>
<path fill="none" stroke="black" d="M885.98,-387.13C959.55,-399.15 1068.22,-419.06 1081.3,-433.63 1132.19,-490.34 1087.54,-704.48 1117.3,-774.63 1121.83,-785.33 1129.23,-795.52 1136.75,-804.11"/>
<polygon fill="black" stroke="black" points="1134.09,-806.4 1143.47,-811.33 1139.21,-801.63 1134.09,-806.4"/>
</g>
<!-- memory&#45;&gt;_root -->
<g id="edge46" class="edge">
<title>memory&#45;&gt;_root</title>
<path fill="none" stroke="black" d="M988.77,-867.81C967.75,-880.06 932.72,-894.84 900.63,-900.63 609.96,-953.03 442.09,-1039.54 240.56,-823.63 189.17,-768.57 178.04,-526.79 175.75,-441.97"/>
<polygon fill="black" stroke="black" points="179.25,-442.07 175.51,-432.15 172.26,-442.24 179.25,-442.07"/>
</g>
<!-- memory&#45;&gt;agent&#45;runtime -->
<g id="edge47" class="edge">
<title>memory&#45;&gt;agent&#45;runtime</title>
<path fill="none" stroke="black" d="M972.54,-861.42C876.08,-879.77 602.59,-907.17 402.8,-818.63 374.47,-806.08 345.61,-785.19 326.59,-768.25"/>
<polygon fill="black" stroke="black" points="329.14,-765.84 319.44,-761.58 324.36,-770.96 329.14,-765.84"/>
</g>
<!-- memory&#45;&gt;observability -->
<g id="edge48" class="edge">
<title>memory&#45;&gt;observability</title>
<path fill="none" stroke="black" d="M1051.44,-854.88C1099.31,-858.62 1178.77,-864.84 1235.74,-869.3"/>
<polygon fill="black" stroke="black" points="1235.42,-872.79 1245.66,-870.08 1235.97,-865.81 1235.42,-872.79"/>
</g>
<!-- memory&#45;&gt;resilience -->
<g id="edge49" class="edge">
<title>memory&#45;&gt;resilience</title>
<path fill="none" stroke="black" d="M1032.47,-836.28C1058.24,-818.72 1100.66,-789.8 1130.01,-769.79"/>
<polygon fill="black" stroke="black" points="1131.88,-772.76 1138.18,-764.23 1127.94,-766.97 1131.88,-772.76"/>
</g>
<!-- memory&#45;&gt;retrieval -->
<g id="edge50" class="edge">
<title>memory&#45;&gt;retrieval</title>
<path fill="none" stroke="black" d="M1049.65,-845.65C1068.85,-842.75 1092.11,-839.25 1112.52,-836.17"/>
<polygon fill="black" stroke="black" points="1112.97,-839.64 1122.34,-834.69 1111.93,-832.72 1112.97,-839.64"/>
</g>
<!-- model&#45;providers&#45;&gt;_root -->
<g id="edge51" class="edge">
<title>model&#45;providers&#45;&gt;_root</title>
<path fill="none" stroke="black" d="M936.51,-461.37C858.7,-457.84 730.58,-449.63 619.96,-449.63 452.64,-449.63 452.64,-449.63 452.64,-449.63 365.77,-449.63 264.38,-435.88 211.49,-424.55"/>
<polygon fill="black" stroke="black" points="212.35,-421.15 201.83,-422.36 210.81,-427.98 212.35,-421.15"/>
</g>
<!-- observability&#45;&gt;_root -->
<g id="edge52" class="edge">
<title>observability&#45;&gt;_root</title>
<path fill="none" stroke="black" d="M1296.18,-892.67C1267.03,-952.05 1156.8,-1135.63 1009.96,-1135.63 452.64,-1135.63 452.64,-1135.63 452.64,-1135.63 328.72,-1135.63 299.22,-1063.78 240.56,-954.63 192.52,-865.26 178.91,-542.52 175.91,-442.35"/>
<polygon fill="black" stroke="black" points="179.42,-442.42 175.64,-432.53 172.42,-442.62 179.42,-442.42"/>
</g>
<!-- observability&#45;&gt;agent&#45;runtime -->
<g id="edge53" class="edge">
<title>observability&#45;&gt;agent&#45;runtime</title>
<path fill="none" stroke="black" d="M1255.66,-884.95C1134.66,-903.19 808.29,-933.01 540.48,-893.63 477.91,-884.43 457.05,-890.14 402.8,-857.63 366.56,-835.91 335.52,-796.87 318.54,-770.15"/>
<polygon fill="black" stroke="black" points="321.69,-768.6 313.52,-761.87 315.71,-772.23 321.69,-768.6"/>
</g>
<!-- retrieval&#45;&gt;_root -->
<g id="edge54" class="edge">
<title>retrieval&#45;&gt;_root</title>
<path fill="none" stroke="black" d="M1148.22,-845.74C1132.49,-859.22 1106.14,-876.66 1081.3,-887.63 1004.87,-921.4 982.03,-920.76 900.63,-939.63 684.55,-989.72 618.75,-1025.24 402.8,-974.63 324.71,-956.33 287.64,-960.56 240.56,-895.63 188,-823.14 177.6,-536.63 175.63,-442.56"/>
<polygon fill="black" stroke="black" points="179.13,-442.54 175.44,-432.61 172.13,-442.67 179.13,-442.54"/>
</g>
<!-- scheduler&#45;&gt;_root -->
<g id="edge55" class="edge">
<title>scheduler&#45;&gt;_root</title>
<path fill="none" stroke="black" d="M283.41,-346.08C270.87,-353.39 254.35,-361.8 240.56,-370.63 229.23,-377.88 217.47,-386.62 207.09,-394.38"/>
<polygon fill="black" stroke="black" points="205.15,-391.46 199.22,-400.24 209.33,-397.07 205.15,-391.46"/>
</g>
<!-- scheduler&#45;&gt;connectors -->
<g id="edge56" class="edge">
<title>scheduler&#45;&gt;connectors</title>
<path fill="none" stroke="black" d="M337.88,-317.06C358.31,-309.33 384.77,-299.32 407.14,-290.85"/>
<polygon fill="black" stroke="black" points="408.21,-294.19 416.33,-287.37 405.74,-287.64 408.21,-294.19"/>
</g>
<!-- scheduler&#45;&gt;observability -->
<g id="edge57" class="edge">
<title>scheduler&#45;&gt;observability</title>
<path fill="none" stroke="black" d="M349.37,-326.16C517.14,-314.25 1105.08,-282.99 1209.76,-420.63 1261.42,-488.54 1292,-755.34 1300.99,-845.03"/>
<polygon fill="black" stroke="black" points="1297.48,-845.12 1301.95,-854.73 1304.45,-844.44 1297.48,-845.12"/>
</g>
<!-- self&#45;learning&#45;&gt;_root -->
<g id="edge58" class="edge">
<title>self&#45;learning&#45;&gt;_root</title>
<path fill="none" stroke="black" d="M276.08,-141.71C263.61,-147.63 249.56,-155.34 240.56,-166.63 188.71,-231.67 177.54,-333.11 175.42,-383.09"/>
<polygon fill="black" stroke="black" points="171.93,-382.74 175.11,-392.84 178.93,-382.96 171.93,-382.74"/>
</g>
<!-- skills&#45;&gt;agent&#45;runtime -->
<g id="edge59" class="edge">
<title>skills&#45;&gt;agent&#45;runtime</title>
<path fill="none" stroke="black" d="M588.44,-817.46C546.71,-814.33 468.26,-801.63 402.8,-784.63 381.57,-779.12 358.28,-771.36 339.72,-763.78"/>
<polygon fill="black" stroke="black" points="341.35,-760.67 330.78,-759.95 338.6,-767.1 341.35,-760.67"/>
</g>
<!-- skills&#45;&gt;memory -->
<g id="edge60" class="edge">
<title>skills&#45;&gt;memory</title>
<path fill="none" stroke="black" d="M649.44,-818.37C714.82,-824.43 872.72,-839.08 955.43,-846.76"/>
<polygon fill="black" stroke="black" points="955.04,-850.24 965.32,-847.67 955.69,-843.27 955.04,-850.24"/>
</g>
<!-- tools&#45;&gt;_root -->
<g id="edge61" class="edge">
<title>tools&#45;&gt;_root</title>
<path fill="none" stroke="black" d="M424.62,-530.95C382.82,-525.19 302.41,-505.17 240.56,-472.63 223.37,-463.59 206.15,-449.92 193.7,-437.69"/>
<polygon fill="black" stroke="black" points="196.39,-435.44 186.95,-430.62 191.33,-440.27 196.39,-435.44"/>
</g>
<!-- tools&#45;&gt;agent&#45;runtime -->
<g id="edge62" class="edge">
<title>tools&#45;&gt;agent&#45;runtime</title>
<path fill="none" stroke="black" d="M443.1,-547.84C419.79,-584.97 359.5,-671.84 326.7,-716.04"/>
<polygon fill="black" stroke="black" points="324.06,-713.74 320.86,-723.84 329.66,-717.93 324.06,-713.74"/>
</g>
<!-- tools&#45;&gt;documents -->
<g id="edge63" class="edge">
<title>tools&#45;&gt;documents</title>
<path fill="none" stroke="black" d="M463.98,-513.76C479.55,-485.74 511.93,-427.91 540.48,-379.63 560.7,-345.44 584.77,-306.56 600.66,-281.15"/>
<polygon fill="black" stroke="black" points="603.58,-283.07 605.93,-272.74 597.65,-279.36 603.58,-283.07"/>
</g>
<!-- tools&#45;&gt;google&#45;workspace -->
<g id="edge64" class="edge">
<title>tools&#45;&gt;google&#45;workspace</title>
<path fill="none" stroke="black" d="M472.36,-544.31C482.18,-552.2 494.42,-562.53 504.48,-572.63 522.08,-590.28 520.38,-600.89 540.48,-615.63 546.86,-620.31 554.03,-624.45 561.36,-628.06"/>
<polygon fill="black" stroke="black" points="559.84,-631.21 570.39,-632.19 562.75,-624.84 559.84,-631.21"/>
</g>
<!-- tools&#45;&gt;ingestion -->
<g id="edge65" class="edge">
<title>tools&#45;&gt;ingestion</title>
<path fill="none" stroke="black" d="M465.75,-514.11C480.91,-492.36 509.73,-453.7 540.48,-426.63 683.47,-300.75 885.8,-192.71 969.46,-150.54"/>
<polygon fill="black" stroke="black" points="970.8,-153.78 978.17,-146.17 967.66,-147.52 970.8,-153.78"/>
</g>
<!-- tools&#45;&gt;interaction&#45;surfaces -->
<g id="edge66" class="edge">
<title>tools&#45;&gt;interaction&#45;surfaces</title>
<path fill="none" stroke="black" d="M478.07,-520.64C536.38,-495.8 688.92,-430.79 767.58,-397.28"/>
<polygon fill="black" stroke="black" points="768.49,-400.69 776.32,-393.55 765.75,-394.25 768.49,-400.69"/>
</g>
<!-- tools&#45;&gt;memory -->
<g id="edge67" class="edge">
<title>tools&#45;&gt;memory</title>
<path fill="none" stroke="black" d="M474.79,-543.43C491.78,-553.78 517.01,-568.14 540.48,-577.63 607.54,-604.74 632.46,-588.85 697.44,-620.63 816.71,-678.97 829.82,-720.74 936.63,-799.63 949.89,-809.43 964.6,-820.17 977.2,-829.34"/>
<polygon fill="black" stroke="black" points="975,-832.06 985.15,-835.11 979.11,-826.4 975,-832.06"/>
</g>
<!-- tools&#45;&gt;model&#45;providers -->
<g id="edge68" class="edge">
<title>tools&#45;&gt;model&#45;providers</title>
<path fill="none" stroke="black" d="M482.08,-527.16C563.81,-516.82 807.69,-485.97 932.52,-470.17"/>
<polygon fill="black" stroke="black" points="932.87,-473.66 942.35,-468.93 931.99,-466.71 932.87,-473.66"/>
</g>
<!-- tools&#45;&gt;retrieval -->
<g id="edge69" class="edge">
<title>tools&#45;&gt;retrieval</title>
<path fill="none" stroke="black" d="M482.73,-532.86C555.35,-539.54 753.9,-563.56 900.63,-635.63 995.68,-682.32 1091.99,-764.15 1136.73,-804.6"/>
<polygon fill="black" stroke="black" points="1134.1,-806.94 1143.85,-811.09 1138.82,-801.77 1134.1,-806.94"/>
</g>
<!-- tools&#45;&gt;skills -->
<g id="edge70" class="edge">
<title>tools&#45;&gt;skills</title>
<path fill="none" stroke="black" d="M464.37,-547.6C491.65,-595.21 569.06,-730.31 602.39,-788.46"/>
<polygon fill="black" stroke="black" points="599.31,-790.14 607.32,-797.07 605.39,-786.65 599.31,-790.14"/>
</g>
</g>
</svg>
