<?xml version="1.0" encoding="UTF-8" standalone="no"?>
<!DOCTYPE svg PUBLIC "-//W3C//DTD SVG 1.1//EN"
 "http://www.w3.org/Graphics/SVG/1.1/DTD/svg11.dtd">
<!-- Generated by graphviz version 15.0.0 (20260523.1842)
 -->
<!-- Title: messy_repo Pages: 1 -->
<svg width="1215pt" height="964pt"
 viewBox="0.00 0.00 1215.00 964.00" xmlns="http://www.w3.org/2000/svg" xmlns:xlink="http://www.w3.org/1999/xlink">
<g id="graph0" class="graph" transform="scale(1 1) rotate(0) translate(25.2 939.27)">
<title>messy_repo</title>
<polygon fill="#111318" stroke="none" points="-25.2,25.2 -25.2,-939.27 1190.2,-939.27 1190.2,25.2 -25.2,25.2"/>
<g id="clust1" class="cluster">
<title>cluster_ui</title>
<path fill="#111318" stroke="#5f6b84" d="M20,-332.07C20,-332.07 121.75,-332.07 121.75,-332.07 127.75,-332.07 133.75,-338.07 133.75,-344.07 133.75,-344.07 133.75,-586.07 133.75,-586.07 133.75,-592.07 127.75,-598.07 121.75,-598.07 121.75,-598.07 20,-598.07 20,-598.07 14,-598.07 8,-592.07 8,-586.07 8,-586.07 8,-344.07 8,-344.07 8,-338.07 14,-332.07 20,-332.07"/>
<text xml:space="preserve" text-anchor="middle" x="70.88" y="-580.77" font-family="Times,serif" font-size="14.00" fill="#edf2ff">UI surfaces</text>
</g>
<g id="clust2" class="cluster">
<title>cluster_api</title>
<path fill="#111318" stroke="#5f6b84" d="M207,-502.07C207,-502.07 314.75,-502.07 314.75,-502.07 320.75,-502.07 326.75,-508.07 326.75,-514.07 326.75,-514.07 326.75,-756.07 326.75,-756.07 326.75,-762.07 320.75,-768.07 314.75,-768.07 314.75,-768.07 207,-768.07 207,-768.07 201,-768.07 195,-762.07 195,-756.07 195,-756.07 195,-514.07 195,-514.07 195,-508.07 201,-502.07 207,-502.07"/>
<text xml:space="preserve" text-anchor="middle" x="260.88" y="-750.77" font-family="Times,serif" font-size="14.00" fill="#edf2ff">API routes</text>
</g>
<g id="clust3" class="cluster">
<title>cluster_logic</title>
<path fill="#111318" stroke="#b88746" d="M485.5,-187.07C485.5,-187.07 886.75,-187.07 886.75,-187.07 892.75,-187.07 898.75,-193.07 898.75,-199.07 898.75,-199.07 898.75,-315.07 898.75,-315.07 898.75,-321.07 892.75,-327.07 886.75,-327.07 886.75,-327.07 485.5,-327.07 485.5,-327.07 479.5,-327.07 473.5,-321.07 473.5,-315.07 473.5,-315.07 473.5,-199.07 473.5,-199.07 473.5,-193.07 479.5,-187.07 485.5,-187.07"/>
<text xml:space="preserve" text-anchor="middle" x="686.12" y="-309.77" font-family="Times,serif" font-size="14.00" fill="#ffdca8">Business logic?</text>
</g>
<g id="clust4" class="cluster">
<title>cluster_shared</title>
<path fill="#111318" stroke="#6977a8" d="M511.75,-766.07C511.75,-766.07 1131.25,-766.07 1131.25,-766.07 1137.25,-766.07 1143.25,-772.07 1143.25,-778.07 1143.25,-778.07 1143.25,-894.07 1143.25,-894.07 1143.25,-900.07 1137.25,-906.07 1131.25,-906.07 1131.25,-906.07 511.75,-906.07 511.75,-906.07 505.75,-906.07 499.75,-900.07 499.75,-894.07 499.75,-894.07 499.75,-778.07 499.75,-778.07 499.75,-772.07 505.75,-766.07 511.75,-766.07"/>
<text xml:space="preserve" text-anchor="middle" x="821.5" y="-888.77" font-family="Times,serif" font-size="14.00" fill="#d8defe">Shared utilities</text>
</g>
<g id="clust5" class="cluster">
<title>cluster_dead</title>
<path fill="#111318" stroke="#8d4c58" stroke-dasharray="5,2" d="M767,-335.07C767,-335.07 880.75,-335.07 880.75,-335.07 886.75,-335.07 892.75,-341.07 892.75,-347.07 892.75,-347.07 892.75,-589.07 892.75,-589.07 892.75,-595.07 886.75,-601.07 880.75,-601.07 880.75,-601.07 767,-601.07 767,-601.07 761,-601.07 755,-595.07 755,-589.07 755,-589.07 755,-347.07 755,-347.07 755,-341.07 761,-335.07 767,-335.07"/>
<text xml:space="preserve" text-anchor="middle" x="823.88" y="-583.77" font-family="Times,serif" font-size="14.00" fill="#ffd6dd">Dead / stale code</text>
</g>
<g id="clust6" class="cluster">
<title>cluster_infra</title>
<path fill="#111318" stroke="#4f8c74" d="M1048.5,-335.07C1048.5,-335.07 1153,-335.07 1153,-335.07 1159,-335.07 1165,-341.07 1165,-347.07 1165,-347.07 1165,-589.07 1165,-589.07 1165,-595.07 1159,-601.07 1153,-601.07 1153,-601.07 1048.5,-601.07 1048.5,-601.07 1042.5,-601.07 1036.5,-595.07 1036.5,-589.07 1036.5,-589.07 1036.5,-347.07 1036.5,-347.07 1036.5,-341.07 1042.5,-335.07 1048.5,-335.07"/>
<text xml:space="preserve" text-anchor="middle" x="1100.75" y="-583.77" font-family="Times,serif" font-size="14.00" fill="#c8f6e2">Infrastructure details</text>
</g>
<g id="clust7" class="cluster">
<title>cluster_tests</title>
<path fill="#111318" stroke="#705d99" stroke-dasharray="5,2" d="M184.75,-284.07C184.75,-284.07 338,-284.07 338,-284.07 344,-284.07 350,-290.07 350,-296.07 350,-296.07 350,-412.07 350,-412.07 350,-418.07 344,-424.07 338,-424.07 338,-424.07 184.75,-424.07 184.75,-424.07 178.75,-424.07 172.75,-418.07 172.75,-412.07 172.75,-412.07 172.75,-296.07 172.75,-296.07 172.75,-290.07 178.75,-284.07 184.75,-284.07"/>
<text xml:space="preserve" text-anchor="middle" x="261.38" y="-406.77" font-family="Times,serif" font-size="14.00" fill="#e6dcff">Tests leaking runtime helpers</text>
</g>
<g id="clust8" class="cluster">
<title>cluster_workers</title>
<path fill="#111318" stroke="#5f6b84" d="M214.12,-136.07C214.12,-136.07 307.62,-136.07 307.62,-136.07 313.62,-136.07 319.62,-142.07 319.62,-148.07 319.62,-148.07 319.62,-264.07 319.62,-264.07 319.62,-270.07 313.62,-276.07 307.62,-276.07 307.62,-276.07 214.12,-276.07 214.12,-276.07 208.12,-276.07 202.12,-270.07 202.12,-264.07 202.12,-264.07 202.12,-148.07 202.12,-148.07 202.12,-142.07 208.12,-136.07 214.12,-136.07"/>
<text xml:space="preserve" text-anchor="middle" x="260.88" y="-258.77" font-family="Times,serif" font-size="14.00" fill="#edf2ff">Workers</text>
</g>
<!-- ui_dashboard&#45;&gt;api_reports -->
<g id="edge1" class="edge">
<title>ui_dashboard&#45;&gt;api_reports</title>
<path fill="none" stroke="#8b93a7" stroke-width="1.1" d="M80.42,-565.11C95.22,-594.52 128.35,-652.84 172.75,-686.07 180.94,-692.2 190.46,-697.2 200.13,-701.25"/>
<polygon fill="#8b93a7" stroke="#8b93a7" stroke-width="1.1" points="199.11,-703.29 205.99,-703.56 200.78,-699.06 199.11,-703.29"/>
</g>
<!-- ui_checkout&#45;&gt;api_orders -->
<g id="edge2" class="edge">
<title>ui_checkout&#45;&gt;api_orders</title>
<path fill="none" stroke="#8b93a7" stroke-width="1.1" d="M114.5,-437.69C121.61,-441.89 128.4,-446.98 133.75,-453.07 167.18,-491.07 136.82,-524.41 172.75,-560.07 180.81,-568.06 191.06,-574 201.67,-578.42"/>
<polygon fill="#8b93a7" stroke="#8b93a7" stroke-width="1.1" points="200.62,-580.45 207.5,-580.64 202.24,-576.2 200.62,-580.45"/>
</g>
<!-- ui_checkout&#45;&gt;db_client -->
<g id="edge5" class="edge">
<title>ui_checkout&#45;&gt;db_client</title>
<path fill="none" stroke="#d07878" stroke-width="2" d="M114.58,-406.53C121.95,-402.28 128.81,-396.87 133.75,-390.07 202.37,-295.49 100.81,-222.14 172.75,-130.07 261.84,-16.04 331.58,-33.58 473.5,-5.32 567.94,13.49 893.16,-25.01 898.75,-28.07 1019.55,-94.04 1075.14,-266.28 1092.74,-333.57"/>
<polygon fill="#d07878" stroke="#d07878" stroke-width="2" points="1090.51,-334.04 1094.32,-339.77 1094.92,-332.91 1090.51,-334.04"/>
<text xml:space="preserve" text-anchor="middle" x="547.62" y="-6.52" font-family="Helvetica,sans-Serif" font-size="9.00" fill="#b8c0d4">direct DB</text>
</g>
<!-- ui_admin&#45;&gt;api_users -->
<g id="edge3" class="edge">
<title>ui_admin&#45;&gt;api_users</title>
<path fill="none" stroke="#8b93a7" stroke-width="1.1" d="M112.41,-376.4C119.8,-380.46 127.22,-385.06 133.75,-390.07 145.64,-399.18 205.98,-466.92 238.7,-503.99"/>
<polygon fill="#8b93a7" stroke="#8b93a7" stroke-width="1.1" points="236.6,-505.04 242.6,-508.41 240.01,-502.03 236.6,-505.04"/>
</g>
<!-- ui_admin&#45;&gt;sdk_payment -->
<g id="edge6" class="edge">
<title>ui_admin&#45;&gt;sdk_payment</title>
<path fill="none" stroke="#d07878" stroke-width="2" d="M74,-339.6C82.81,-272.87 122.66,-48.07 259.88,-48.07 259.88,-48.07 259.88,-48.07 686.38,-48.07 797.75,-48.07 838.32,-87.52 898.75,-181.07 932.58,-233.44 883.7,-267.83 917.75,-320.07 947.56,-365.79 1004.94,-393.68 1047.23,-408.91"/>
<polygon fill="#d07878" stroke="#d07878" stroke-width="2" points="1046.26,-410.98 1053.15,-410.97 1047.76,-406.68 1046.26,-410.98"/>
<text xml:space="preserve" text-anchor="middle" x="547.62" y="-49.27" font-family="Helvetica,sans-Serif" font-size="9.00" fill="#b8c0d4">SDK bypass</text>
</g>
<!-- ui_legacy&#45;&gt;dead_helper -->
<g id="edge4" class="edge">
<title>ui_legacy&#45;&gt;dead_helper</title>
<path fill="none" stroke="#d07878" stroke-width="1.1" d="M126.04,-485.27C182.14,-486.79 272.31,-489.96 350,-496.07 494.93,-507.45 664.01,-528.69 755.58,-540.87"/>
<polygon fill="#d07878" stroke="#d07878" stroke-width="1.1" points="755.26,-543.12 762.01,-541.72 755.87,-538.61 755.26,-543.12"/>
<text xml:space="preserve" text-anchor="middle" x="411.75" y="-506.43" font-family="Helvetica,sans-Serif" font-size="9.00" fill="#b8c0d4">stale import</text>
</g>
<!-- api_orders&#45;&gt;svc_order -->
<g id="edge7" class="edge">
<title>api_orders&#45;&gt;svc_order</title>
<path fill="none" stroke="#8b93a7" stroke-width="1.1" d="M312.81,-579.19C359.28,-565.3 425.05,-537.26 454.5,-485.07 480.79,-438.47 442.47,-288.65 473.5,-245.07 475.79,-241.85 478.48,-238.95 481.44,-236.34"/>
<polygon fill="#8b93a7" stroke="#8b93a7" stroke-width="1.1" points="482.81,-238.16 486.57,-232.4 480.03,-234.56 482.81,-238.16"/>
</g>
<!-- api_orders&#45;&gt;db_client -->
<g id="edge8" class="edge">
<title>api_orders&#45;&gt;db_client</title>
<path fill="none" stroke="#d07878" stroke-width="2" d="M312.84,-598.54C445.54,-617.02 798.39,-659.54 898.75,-605.07 997.51,-551.46 953,-468.26 1036.5,-393.07 1042.84,-387.36 1050.38,-382.38 1058.01,-378.17"/>
<polygon fill="#d07878" stroke="#d07878" stroke-width="2" points="1058.84,-380.3 1063.57,-375.29 1056.75,-376.26 1058.84,-380.3"/>
<text xml:space="preserve" text-anchor="middle" x="685.38" y="-633.04" font-family="Helvetica,sans-Serif" font-size="9.00" fill="#b8c0d4">bypass</text>
</g>
<!-- api_users&#45;&gt;svc_user -->
<g id="edge9" class="edge">
<title>api_users&#45;&gt;svc_user</title>
<path fill="none" stroke="#8b93a7" stroke-width="1.1" d="M282.35,-509.94C332.92,-465.19 463.69,-349.47 520.09,-299.55"/>
<polygon fill="#8b93a7" stroke="#8b93a7" stroke-width="1.1" points="521.34,-301.48 524.7,-295.47 518.33,-298.07 521.34,-301.48"/>
</g>
<!-- api_reports&#45;&gt;util_misc -->
<g id="edge10" class="edge">
<title>api_reports&#45;&gt;util_misc</title>
<path fill="none" stroke="#8b93a7" stroke-width="1.1" d="M296.35,-735.4C337.95,-757.31 410.2,-794.69 473.5,-824.07 483.46,-828.69 494.31,-833.44 504.52,-837.79"/>
<polygon fill="#8b93a7" stroke="#8b93a7" stroke-width="1.1" points="503.41,-839.79 510.29,-840.23 505.19,-835.6 503.41,-839.79"/>
</g>
<!-- api_webhook&#45;&gt;sdk_payment -->
<g id="edge11" class="edge">
<title>api_webhook&#45;&gt;sdk_payment</title>
<path fill="none" stroke="#8b93a7" stroke-width="1.1" d="M319.05,-666.48C434.45,-688.63 701.06,-724.99 898.75,-638.07 966.01,-608.49 979.8,-586.12 1017.5,-523.07 1033.38,-496.5 1016.85,-479.98 1036.5,-456.07 1040.13,-451.65 1044.53,-447.78 1049.29,-444.4"/>
<polygon fill="#8b93a7" stroke="#8b93a7" stroke-width="1.1" points="1050.34,-446.43 1054.57,-441 1047.87,-442.6 1050.34,-446.43"/>
</g>
<!-- api_webhook&#45;&gt;queue_client -->
<g id="edge12" class="edge">
<title>api_webhook&#45;&gt;queue_client</title>
<path fill="none" stroke="#8b93a7" stroke-width="1.1" d="M318.1,-672.43C328.87,-676.52 339.92,-681.12 350,-686.07 358.97,-690.46 359.41,-695.29 369,-698.07 507.43,-738.12 910.35,-794.44 1017.5,-698.07 1047.24,-671.32 1013.83,-552.02 1036.5,-519.07 1040.24,-513.63 1045.18,-509.07 1050.66,-505.25"/>
<polygon fill="#8b93a7" stroke="#8b93a7" stroke-width="1.1" points="1051.58,-507.36 1055.88,-501.99 1049.17,-503.5 1051.58,-507.36"/>
</g>
<!-- svc_order&#45;&gt;svc_billing -->
<g id="edge13" class="edge">
<title>svc_order&#45;&gt;svc_billing</title>
<path fill="none" stroke="#8b93a7" stroke-width="1.1" d="M614.02,-229.06C622.95,-230.71 632.04,-232.13 640.75,-233.07 680.19,-237.3 690.56,-237.27 730,-233.07 736.11,-232.42 742.41,-231.53 748.72,-230.49"/>
<polygon fill="#8b93a7" stroke="#8b93a7" stroke-width="1.1" points="749.04,-232.75 755.05,-229.39 748.26,-228.26 749.04,-232.75"/>
</g>
<!-- svc_order&#45;&gt;rules_pricing -->
<g id="edge15" class="edge">
<title>svc_order&#45;&gt;rules_pricing</title>
<path fill="none" stroke="#8b93a7" stroke-width="1.1" d="M603.36,-231.49C615.59,-235.27 628.55,-239.02 640.75,-242.07 685.18,-253.16 736.52,-262.43 773.34,-268.48"/>
<polygon fill="#8b93a7" stroke="#8b93a7" stroke-width="1.1" points="772.55,-270.65 779.33,-269.45 773.28,-266.16 772.55,-270.65"/>
</g>
<!-- svc_order&#45;&gt;test_factory -->
<g id="edge32" class="edge">
<title>svc_order&#45;&gt;test_factory</title>
<path fill="none" stroke="#d07878" stroke-width="2" d="M481.37,-204C444.81,-202.5 400.41,-207.07 369,-231.32 349.94,-246.03 367.46,-265.47 350,-282.07 339.69,-291.87 325.96,-298.24 312.42,-302.38"/>
<polygon fill="#d07878" stroke="#d07878" stroke-width="2" points="312.17,-300.09 306.5,-303.99 313.37,-304.47 312.17,-300.09"/>
<text xml:space="preserve" text-anchor="middle" x="411.75" y="-232.52" font-family="Helvetica,sans-Serif" font-size="9.00" fill="#b8c0d4">runtime leak</text>
</g>
<!-- svc_billing&#45;&gt;svc_order -->
<g id="edge14" class="edge">
<title>svc_billing&#45;&gt;svc_order</title>
<path fill="none" stroke="#d07878" stroke-width="2" d="M756.61,-213.07C716.37,-213.07 664.91,-213.07 623.24,-213.07"/>
<polygon fill="#d07878" stroke="#d07878" stroke-width="2" points="623.49,-210.79 616.99,-213.07 623.49,-215.34 623.49,-210.79"/>
<text xml:space="preserve" text-anchor="middle" x="685.38" y="-214.27" font-family="Helvetica,sans-Serif" font-size="9.00" fill="#b8c0d4">cycle</text>
</g>
<!-- svc_user&#45;&gt;util_auth -->
<g id="edge17" class="edge">
<title>svc_user&#45;&gt;util_auth</title>
<path fill="none" stroke="#8b93a7" stroke-width="1.1" d="M579.01,-294.43C591.98,-303.96 605.92,-316.81 613.75,-332.07 645.02,-393 600.18,-583.89 640.75,-639.07 740.04,-774.09 963.47,-791.56 1056.91,-792.71"/>
<polygon fill="#8b93a7" stroke="#8b93a7" stroke-width="1.1" points="1056.83,-794.99 1063.35,-792.76 1056.86,-790.44 1056.83,-794.99"/>
</g>
<!-- svc_user&#45;&gt;dead_adapter -->
<g id="edge18" class="edge">
<title>svc_user&#45;&gt;dead_adapter</title>
<path fill="none" stroke="#d07878" stroke-width="1.1" d="M585.13,-294.44C622.27,-313.51 681.16,-344.76 730,-375.32 741.55,-382.54 743.19,-386.26 755,-393.07 760.37,-396.16 766.1,-399.18 771.87,-402.04"/>
<polygon fill="#d07878" stroke="#d07878" stroke-width="1.1" points="770.83,-404.07 777.67,-404.86 772.82,-399.98 770.83,-404.07"/>
<text xml:space="preserve" text-anchor="middle" x="685.38" y="-376.52" font-family="Helvetica,sans-Serif" font-size="9.00" fill="#b8c0d4">forgotten dependency</text>
</g>
<!-- rules_pricing&#45;&gt;db_client -->
<g id="edge16" class="edge">
<title>rules_pricing&#45;&gt;db_client</title>
<path fill="none" stroke="#d07878" stroke-width="2" d="M866.85,-289.07C918.54,-305.08 1005.81,-332.12 1057.43,-348.11"/>
<polygon fill="#d07878" stroke="#d07878" stroke-width="2" points="1056.55,-350.22 1063.44,-349.97 1057.9,-345.87 1056.55,-350.22"/>
<text xml:space="preserve" text-anchor="middle" x="967.62" y="-334.77" font-family="Helvetica,sans-Serif" font-size="9.00" fill="#b8c0d4">policy depends on detail</text>
</g>
<!-- util_format&#45;&gt;dead_helper -->
<g id="edge22" class="edge">
<title>util_format&#45;&gt;dead_helper</title>
<path fill="none" stroke="#8b93a7" stroke-width="1.1" d="M551.42,-773.65C558.51,-733.59 581.09,-638.27 640.75,-590.07 672.96,-564.05 718.44,-554.04 755.9,-550.54"/>
<polygon fill="#8b93a7" stroke="#8b93a7" stroke-width="1.1" points="755.81,-552.83 762.1,-550.03 755.44,-548.3 755.81,-552.83"/>
</g>
<!-- util_fetch&#45;&gt;util_auth -->
<g id="edge20" class="edge">
<title>util_fetch&#45;&gt;util_auth</title>
<path fill="none" stroke="#8b93a7" stroke-width="1.1" d="M860.39,-843.58C899.06,-835.42 962.7,-821.93 1017.5,-810.07 1030.44,-807.26 1044.52,-804.18 1057.29,-801.36"/>
<polygon fill="#8b93a7" stroke="#8b93a7" stroke-width="1.1" points="1057.57,-803.63 1063.43,-800.01 1056.59,-799.19 1057.57,-803.63"/>
</g>
<!-- util_auth&#45;&gt;sdk_email -->
<g id="edge21" class="edge">
<title>util_auth&#45;&gt;sdk_email</title>
<path fill="none" stroke="#d07878" stroke-width="1.1" d="M1100.25,-773.67C1100.25,-731.06 1100.25,-625.53 1100.25,-576.22"/>
<polygon fill="#d07878" stroke="#d07878" stroke-width="1.1" points="1102.53,-576.42 1100.25,-569.92 1097.98,-576.42 1102.53,-576.42"/>
<text xml:space="preserve" text-anchor="middle" x="1092.38" y="-667.39" font-family="Helvetica,sans-Serif" font-size="9.00" fill="#b8c0d4">hidden SDK</text>
</g>
<!-- util_misc&#45;&gt;util_fetch -->
<g id="edge19" class="edge">
<title>util_misc&#45;&gt;util_fetch</title>
<path fill="none" stroke="#8b93a7" stroke-width="1.1" d="M583.36,-854.56C633.26,-853.83 725.2,-852.49 779.5,-851.7"/>
<polygon fill="#8b93a7" stroke="#8b93a7" stroke-width="1.1" points="779.43,-853.98 785.89,-851.61 779.36,-849.43 779.43,-853.98"/>
</g>
<!-- dead_export&#45;&gt;db_client -->
<g id="edge23" class="edge">
<title>dead_export&#45;&gt;db_client</title>
<path fill="none" stroke="#8b93a7" stroke-width="1.1" d="M874.24,-361.07C927,-361.07 1009.66,-361.07 1058.74,-361.07"/>
<polygon fill="#8b93a7" stroke="#8b93a7" stroke-width="1.1" points="1058.45,-363.34 1064.95,-361.07 1058.45,-358.79 1058.45,-363.34"/>
</g>
<!-- dead_job&#45;&gt;queue_client -->
<g id="edge24" class="edge">
<title>dead_job&#45;&gt;queue_client</title>
<path fill="none" stroke="#8b93a7" stroke-width="1.1" d="M868.96,-487.07C918.28,-487.07 998,-487.07 1049.51,-487.07"/>
<polygon fill="#8b93a7" stroke="#8b93a7" stroke-width="1.1" points="1049.36,-489.34 1055.86,-487.07 1049.36,-484.79 1049.36,-489.34"/>
</g>
<!-- dead_adapter&#45;&gt;sdk_payment -->
<g id="edge25" class="edge">
<title>dead_adapter&#45;&gt;sdk_payment</title>
<path fill="none" stroke="#8b93a7" stroke-width="1.1" d="M885.09,-424.07C933.75,-424.07 1001.52,-424.07 1047.7,-424.07"/>
<polygon fill="#8b93a7" stroke="#8b93a7" stroke-width="1.1" points="1047.61,-426.34 1054.11,-424.07 1047.61,-421.79 1047.61,-426.34"/>
</g>
<!-- dead_helper&#45;&gt;util_misc -->
<g id="edge26" class="edge">
<title>dead_helper&#45;&gt;util_misc</title>
<path fill="none" stroke="#8b93a7" stroke-width="1.1" d="M813.01,-568.45C786.56,-616.31 709.48,-746.4 613.75,-824.07 606.68,-829.8 598.38,-834.77 590.12,-838.96"/>
<polygon fill="#8b93a7" stroke="#8b93a7" stroke-width="1.1" points="589.58,-836.7 584.71,-841.57 591.55,-840.79 589.58,-836.7"/>
</g>
<!-- test_factory&#45;&gt;svc_order -->
<g id="edge31" class="edge">
<title>test_factory&#45;&gt;svc_order</title>
<path fill="none" stroke="#d07878" stroke-width="1.1" d="M303.65,-297.07C318.33,-292.43 334.93,-287.1 350,-282.07 396.48,-266.53 448.83,-248.11 487.82,-234.22"/>
<polygon fill="#d07878" stroke="#d07878" stroke-width="1.1" points="488.51,-236.39 493.86,-232.06 486.98,-232.1 488.51,-236.39"/>
<text xml:space="preserve" text-anchor="middle" x="411.75" y="-276.05" font-family="Helvetica,sans-Serif" font-size="9.00" fill="#b8c0d4">test helper in runtime</text>
</g>
<!-- test_mock&#45;&gt;api_webhook -->
<g id="edge33" class="edge">
<title>test_mock&#45;&gt;api_webhook</title>
<path fill="none" stroke="#8b93a7" stroke-width="1.1" d="M239.67,-391.25C213.49,-415.24 170.36,-460.24 153.25,-509.57 138.69,-551.56 132.62,-570.2 153.25,-609.57 161.83,-625.94 178.01,-636.3 195.27,-642.84"/>
<polygon fill="#8b93a7" stroke="#8b93a7" stroke-width="1.1" points="194.25,-644.9 201.14,-644.88 195.74,-640.6 194.25,-644.9"/>
</g>
<!-- worker_sync&#45;&gt;svc_user -->
<g id="edge27" class="edge">
<title>worker_sync&#45;&gt;svc_user</title>
<path fill="none" stroke="#8b93a7" stroke-width="1.1" d="M306.25,-243.23C325.26,-250.26 347.91,-257.67 369,-262.07 403.76,-269.32 443.07,-272.88 475.85,-274.6"/>
<polygon fill="#8b93a7" stroke="#8b93a7" stroke-width="1.1" points="475.33,-276.86 481.94,-274.9 475.56,-272.31 475.33,-276.86"/>
</g>
<!-- worker_sync&#45;&gt;dead_job -->
<g id="edge28" class="edge">
<title>worker_sync&#45;&gt;dead_job</title>
<path fill="none" stroke="#d07878" stroke-width="1.1" d="M291.4,-243.33C312.65,-256.18 342.18,-273.45 369,-287.07 444.18,-325.24 669.97,-422.06 771.93,-465.45"/>
<polygon fill="#d07878" stroke="#d07878" stroke-width="1.1" points="770.94,-467.51 777.81,-467.96 772.72,-463.32 770.94,-467.51"/>
<text xml:space="preserve" text-anchor="middle" x="547.62" y="-398.15" font-family="Helvetica,sans-Serif" font-size="9.00" fill="#b8c0d4">old path</text>
</g>
<!-- worker_invoice&#45;&gt;svc_billing -->
<g id="edge29" class="edge">
<title>worker_invoice&#45;&gt;svc_billing</title>
<path fill="none" stroke="#8b93a7" stroke-width="1.1" d="M312.1,-163.49C380.48,-165.76 506.62,-171.1 613.75,-182.07 658.76,-186.67 708.92,-194.03 748.83,-200.42"/>
<polygon fill="#8b93a7" stroke="#8b93a7" stroke-width="1.1" points="748.25,-202.63 755.02,-201.42 748.97,-198.14 748.25,-202.63"/>
</g>
<!-- worker_invoice&#45;&gt;db_client -->
<g id="edge30" class="edge">
<title>worker_invoice&#45;&gt;db_client</title>
<path fill="none" stroke="#8b93a7" stroke-width="1.1" d="M311.88,-151.98C422.7,-132.06 695.22,-96.49 898.75,-181.07 979.57,-214.65 1049.34,-295.28 1081.05,-336.26"/>
<polygon fill="#8b93a7" stroke="#8b93a7" stroke-width="1.1" points="1079.22,-337.61 1084.98,-341.39 1082.84,-334.85 1079.22,-337.61"/>
</g>
<!-- ui_dashboard -->
<g id="node1" class="node">
<title>ui_dashboard</title>
<path fill="#232838" stroke="#5f6b84" d="M106.25,-565.07C106.25,-565.07 35.5,-565.07 35.5,-565.07 29.5,-565.07 23.5,-559.07 23.5,-553.07 23.5,-553.07 23.5,-541.07 23.5,-541.07 23.5,-535.07 29.5,-529.07 35.5,-529.07 35.5,-529.07 106.25,-529.07 106.25,-529.07 112.25,-529.07 118.25,-535.07 118.25,-541.07 118.25,-541.07 118.25,-553.07 118.25,-553.07 118.25,-559.07 112.25,-565.07 106.25,-565.07"/>
<text xml:space="preserve" text-anchor="middle" x="70.88" y="-542.62" font-family="Helvetica,sans-Serif" font-size="11.00" fill="#edf2ff">ui/dashboard.tsx</text>
</g>
<!-- ui_checkout -->
<g id="node2" class="node">
<title>ui_checkout</title>
<path fill="#232838" stroke="#5f6b84" d="M102.12,-439.07C102.12,-439.07 39.62,-439.07 39.62,-439.07 33.62,-439.07 27.62,-433.07 27.62,-427.07 27.62,-427.07 27.62,-415.07 27.62,-415.07 27.62,-409.07 33.62,-403.07 39.62,-403.07 39.62,-403.07 102.12,-403.07 102.12,-403.07 108.12,-403.07 114.12,-409.07 114.12,-415.07 114.12,-415.07 114.12,-427.07 114.12,-427.07 114.12,-433.07 108.12,-439.07 102.12,-439.07"/>
<text xml:space="preserve" text-anchor="middle" x="70.88" y="-416.62" font-family="Helvetica,sans-Serif" font-size="11.00" fill="#edf2ff">ui/checkout.tsx</text>
</g>
<!-- ui_admin -->
<g id="node3" class="node">
<title>ui_admin</title>
<path fill="#232838" stroke="#5f6b84" d="M110.38,-376.07C110.38,-376.07 31.37,-376.07 31.37,-376.07 25.37,-376.07 19.38,-370.07 19.38,-364.07 19.38,-364.07 19.38,-352.07 19.38,-352.07 19.38,-346.07 25.38,-340.07 31.38,-340.07 31.38,-340.07 110.38,-340.07 110.38,-340.07 116.38,-340.07 122.38,-346.07 122.38,-352.07 122.38,-352.07 122.38,-364.07 122.38,-364.07 122.38,-370.07 116.38,-376.07 110.38,-376.07"/>
<text xml:space="preserve" text-anchor="middle" x="70.88" y="-353.62" font-family="Helvetica,sans-Serif" font-size="11.00" fill="#edf2ff">ui/admin&#45;panel.tsx</text>
</g>
<!-- ui_legacy -->
<g id="node4" class="node">
<title>ui_legacy</title>
<path fill="#232838" stroke="#5f6b84" d="M113.75,-502.07C113.75,-502.07 28,-502.07 28,-502.07 22,-502.07 16,-496.07 16,-490.07 16,-490.07 16,-478.07 16,-478.07 16,-472.07 22,-466.07 28,-466.07 28,-466.07 113.75,-466.07 113.75,-466.07 119.75,-466.07 125.75,-472.07 125.75,-478.07 125.75,-478.07 125.75,-490.07 125.75,-490.07 125.75,-496.07 119.75,-502.07 113.75,-502.07"/>
<text xml:space="preserve" text-anchor="middle" x="70.88" y="-479.62" font-family="Helvetica,sans-Serif" font-size="11.00" fill="#edf2ff">ui/legacy&#45;widget.tsx</text>
</g>
<!-- api_orders -->
<g id="node5" class="node">
<title>api_orders</title>
<path fill="#232838" stroke="#5f6b84" d="M300.38,-609.07C300.38,-609.07 221.38,-609.07 221.38,-609.07 215.38,-609.07 209.38,-603.07 209.38,-597.07 209.38,-597.07 209.38,-585.07 209.38,-585.07 209.38,-579.07 215.38,-573.07 221.38,-573.07 221.38,-573.07 300.38,-573.07 300.38,-573.07 306.38,-573.07 312.38,-579.07 312.38,-585.07 312.38,-585.07 312.38,-597.07 312.38,-597.07 312.38,-603.07 306.38,-609.07 300.38,-609.07"/>
<text xml:space="preserve" text-anchor="middle" x="260.88" y="-586.62" font-family="Helvetica,sans-Serif" font-size="11.00" fill="#edf2ff">api/orders/route.ts</text>
</g>
<!-- api_users -->
<g id="node6" class="node">
<title>api_users</title>
<path fill="#232838" stroke="#5f6b84" d="M298.12,-546.07C298.12,-546.07 223.62,-546.07 223.62,-546.07 217.62,-546.07 211.62,-540.07 211.62,-534.07 211.62,-534.07 211.62,-522.07 211.62,-522.07 211.62,-516.07 217.62,-510.07 223.62,-510.07 223.62,-510.07 298.12,-510.07 298.12,-510.07 304.12,-510.07 310.12,-516.07 310.12,-522.07 310.12,-522.07 310.12,-534.07 310.12,-534.07 310.12,-540.07 304.12,-546.07 298.12,-546.07"/>
<text xml:space="preserve" text-anchor="middle" x="260.88" y="-523.62" font-family="Helvetica,sans-Serif" font-size="11.00" fill="#edf2ff">api/users/route.ts</text>
</g>
<!-- api_reports -->
<g id="node7" class="node">
<title>api_reports</title>
<path fill="#232838" stroke="#5f6b84" d="M301.88,-735.07C301.88,-735.07 219.88,-735.07 219.88,-735.07 213.88,-735.07 207.88,-729.07 207.88,-723.07 207.88,-723.07 207.88,-711.07 207.88,-711.07 207.88,-705.07 213.88,-699.07 219.88,-699.07 219.88,-699.07 301.88,-699.07 301.88,-699.07 307.88,-699.07 313.88,-705.07 313.88,-711.07 313.88,-711.07 313.88,-723.07 313.88,-723.07 313.88,-729.07 307.88,-735.07 301.88,-735.07"/>
<text xml:space="preserve" text-anchor="middle" x="260.88" y="-712.62" font-family="Helvetica,sans-Serif" font-size="11.00" fill="#edf2ff">api/reports/route.ts</text>
</g>
<!-- api_webhook -->
<g id="node8" class="node">
<title>api_webhook</title>
<path fill="#232838" stroke="#5f6b84" d="M306.75,-672.07C306.75,-672.07 215,-672.07 215,-672.07 209,-672.07 203,-666.07 203,-660.07 203,-660.07 203,-648.07 203,-648.07 203,-642.07 209,-636.07 215,-636.07 215,-636.07 306.75,-636.07 306.75,-636.07 312.75,-636.07 318.75,-642.07 318.75,-648.07 318.75,-648.07 318.75,-660.07 318.75,-660.07 318.75,-666.07 312.75,-672.07 306.75,-672.07"/>
<text xml:space="preserve" text-anchor="middle" x="260.88" y="-649.62" font-family="Helvetica,sans-Serif" font-size="11.00" fill="#edf2ff">api/webhook/route.ts</text>
</g>
<!-- svc_order -->
<g id="node9" class="node">
<title>svc_order</title>
<path fill="#3a2d1d" stroke="#b88746" d="M601.75,-231.07C601.75,-231.07 493.5,-231.07 493.5,-231.07 487.5,-231.07 481.5,-225.07 481.5,-219.07 481.5,-219.07 481.5,-207.07 481.5,-207.07 481.5,-201.07 487.5,-195.07 493.5,-195.07 493.5,-195.07 601.75,-195.07 601.75,-195.07 607.75,-195.07 613.75,-201.07 613.75,-207.07 613.75,-207.07 613.75,-219.07 613.75,-219.07 613.75,-225.07 607.75,-231.07 601.75,-231.07"/>
<text xml:space="preserve" text-anchor="middle" x="547.62" y="-208.62" font-family="Helvetica,sans-Serif" font-size="11.00" fill="#edf2ff">services/order&#45;service.ts</text>
</g>
<!-- svc_billing -->
<g id="node10" class="node">
<title>svc_billing</title>
<path fill="#3a2d1d" stroke="#b88746" d="M878.75,-231.07C878.75,-231.07 769,-231.07 769,-231.07 763,-231.07 757,-225.07 757,-219.07 757,-219.07 757,-207.07 757,-207.07 757,-201.07 763,-195.07 769,-195.07 769,-195.07 878.75,-195.07 878.75,-195.07 884.75,-195.07 890.75,-201.07 890.75,-207.07 890.75,-207.07 890.75,-219.07 890.75,-219.07 890.75,-225.07 884.75,-231.07 878.75,-231.07"/>
<text xml:space="preserve" text-anchor="middle" x="823.88" y="-208.62" font-family="Helvetica,sans-Serif" font-size="11.00" fill="#edf2ff">services/billing&#45;service.ts</text>
</g>
<!-- svc_user -->
<g id="node11" class="node">
<title>svc_user</title>
<path fill="#3a2d1d" stroke="#b88746" d="M599.5,-294.07C599.5,-294.07 495.75,-294.07 495.75,-294.07 489.75,-294.07 483.75,-288.07 483.75,-282.07 483.75,-282.07 483.75,-270.07 483.75,-270.07 483.75,-264.07 489.75,-258.07 495.75,-258.07 495.75,-258.07 599.5,-258.07 599.5,-258.07 605.5,-258.07 611.5,-264.07 611.5,-270.07 611.5,-270.07 611.5,-282.07 611.5,-282.07 611.5,-288.07 605.5,-294.07 599.5,-294.07"/>
<text xml:space="preserve" text-anchor="middle" x="547.62" y="-271.62" font-family="Helvetica,sans-Serif" font-size="11.00" fill="#edf2ff">services/user&#45;service.ts</text>
</g>
<!-- rules_pricing -->
<g id="node12" class="node">
<title>rules_pricing</title>
<path fill="#3a2d1d" stroke="#b88746" d="M854.38,-294.07C854.38,-294.07 793.38,-294.07 793.38,-294.07 787.38,-294.07 781.38,-288.07 781.38,-282.07 781.38,-282.07 781.38,-270.07 781.38,-270.07 781.38,-264.07 787.38,-258.07 793.38,-258.07 793.38,-258.07 854.38,-258.07 854.38,-258.07 860.38,-258.07 866.38,-264.07 866.38,-270.07 866.38,-270.07 866.38,-282.07 866.38,-282.07 866.38,-288.07 860.38,-294.07 854.38,-294.07"/>
<text xml:space="preserve" text-anchor="middle" x="823.88" y="-271.62" font-family="Helvetica,sans-Serif" font-size="11.00" fill="#edf2ff">rules/pricing.ts</text>
</g>
<!-- util_format -->
<g id="node13" class="node">
<title>util_format</title>
<path fill="#232838" stroke="#5f6b84" d="M575.5,-810.07C575.5,-810.07 519.75,-810.07 519.75,-810.07 513.75,-810.07 507.75,-804.07 507.75,-798.07 507.75,-798.07 507.75,-786.07 507.75,-786.07 507.75,-780.07 513.75,-774.07 519.75,-774.07 519.75,-774.07 575.5,-774.07 575.5,-774.07 581.5,-774.07 587.5,-780.07 587.5,-786.07 587.5,-786.07 587.5,-798.07 587.5,-798.07 587.5,-804.07 581.5,-810.07 575.5,-810.07"/>
<text xml:space="preserve" text-anchor="middle" x="547.62" y="-787.62" font-family="Helvetica,sans-Serif" font-size="11.00" fill="#edf2ff">utils/format.ts</text>
</g>
<!-- util_fetch -->
<g id="node14" class="node">
<title>util_fetch</title>
<path fill="#232838" stroke="#5f6b84" d="M848,-869.07C848,-869.07 799.75,-869.07 799.75,-869.07 793.75,-869.07 787.75,-863.07 787.75,-857.07 787.75,-857.07 787.75,-845.07 787.75,-845.07 787.75,-839.07 793.75,-833.07 799.75,-833.07 799.75,-833.07 848,-833.07 848,-833.07 854,-833.07 860,-839.07 860,-845.07 860,-845.07 860,-857.07 860,-857.07 860,-863.07 854,-869.07 848,-869.07"/>
<text xml:space="preserve" text-anchor="middle" x="823.88" y="-846.62" font-family="Helvetica,sans-Serif" font-size="11.00" fill="#edf2ff">utils/fetch.ts</text>
</g>
<!-- util_auth -->
<g id="node15" class="node">
<title>util_auth</title>
<path fill="#232838" stroke="#5f6b84" d="M1123.25,-810.07C1123.25,-810.07 1077.25,-810.07 1077.25,-810.07 1071.25,-810.07 1065.25,-804.07 1065.25,-798.07 1065.25,-798.07 1065.25,-786.07 1065.25,-786.07 1065.25,-780.07 1071.25,-774.07 1077.25,-774.07 1077.25,-774.07 1123.25,-774.07 1123.25,-774.07 1129.25,-774.07 1135.25,-780.07 1135.25,-786.07 1135.25,-786.07 1135.25,-798.07 1135.25,-798.07 1135.25,-804.07 1129.25,-810.07 1123.25,-810.07"/>
<text xml:space="preserve" text-anchor="middle" x="1100.25" y="-787.62" font-family="Helvetica,sans-Serif" font-size="11.00" fill="#edf2ff">utils/auth.ts</text>
</g>
<!-- util_misc -->
<g id="node16" class="node">
<title>util_misc</title>
<path fill="#232838" stroke="#5f6b84" d="M571,-873.07C571,-873.07 524.25,-873.07 524.25,-873.07 518.25,-873.07 512.25,-867.07 512.25,-861.07 512.25,-861.07 512.25,-849.07 512.25,-849.07 512.25,-843.07 518.25,-837.07 524.25,-837.07 524.25,-837.07 571,-837.07 571,-837.07 577,-837.07 583,-843.07 583,-849.07 583,-849.07 583,-861.07 583,-861.07 583,-867.07 577,-873.07 571,-873.07"/>
<text xml:space="preserve" text-anchor="middle" x="547.62" y="-850.62" font-family="Helvetica,sans-Serif" font-size="11.00" fill="#edf2ff">utils/misc.ts</text>
</g>
<!-- dead_export -->
<g id="node17" class="node">
<title>dead_export</title>
<path fill="#3a2028" stroke="#8d4c58" d="M861.88,-379.07C861.88,-379.07 785.88,-379.07 785.88,-379.07 779.88,-379.07 773.88,-373.07 773.88,-367.07 773.88,-367.07 773.88,-355.07 773.88,-355.07 773.88,-349.07 779.88,-343.07 785.88,-343.07 785.88,-343.07 861.88,-343.07 861.88,-343.07 867.88,-343.07 873.88,-349.07 873.88,-355.07 873.88,-355.07 873.88,-367.07 873.88,-367.07 873.88,-373.07 867.88,-379.07 861.88,-379.07"/>
<text xml:space="preserve" text-anchor="middle" x="823.88" y="-356.62" font-family="Helvetica,sans-Serif" font-size="11.00" fill="#edf2ff">legacy/exporter.ts</text>
</g>
<!-- dead_job -->
<g id="node18" class="node">
<title>dead_job</title>
<path fill="#3a2028" stroke="#8d4c58" d="M856.62,-505.07C856.62,-505.07 791.12,-505.07 791.12,-505.07 785.12,-505.07 779.12,-499.07 779.12,-493.07 779.12,-493.07 779.12,-481.07 779.12,-481.07 779.12,-475.07 785.12,-469.07 791.12,-469.07 791.12,-469.07 856.62,-469.07 856.62,-469.07 862.62,-469.07 868.62,-475.07 868.62,-481.07 868.62,-481.07 868.62,-493.07 868.62,-493.07 868.62,-499.07 862.62,-505.07 856.62,-505.07"/>
<text xml:space="preserve" text-anchor="middle" x="823.88" y="-482.62" font-family="Helvetica,sans-Serif" font-size="11.00" fill="#edf2ff">jobs/old&#45;sync.ts</text>
</g>
<!-- dead_adapter -->
<g id="node19" class="node">
<title>dead_adapter</title>
<path fill="#3a2028" stroke="#8d4c58" d="M872.75,-442.07C872.75,-442.07 775,-442.07 775,-442.07 769,-442.07 763,-436.07 763,-430.07 763,-430.07 763,-418.07 763,-418.07 763,-412.07 769,-406.07 775,-406.07 775,-406.07 872.75,-406.07 872.75,-406.07 878.75,-406.07 884.75,-412.07 884.75,-418.07 884.75,-418.07 884.75,-430.07 884.75,-430.07 884.75,-436.07 878.75,-442.07 872.75,-442.07"/>
<text xml:space="preserve" text-anchor="middle" x="823.88" y="-419.62" font-family="Helvetica,sans-Serif" font-size="11.00" fill="#edf2ff">integrations/old&#45;crm.ts</text>
</g>
<!-- dead_helper -->
<g id="node20" class="node">
<title>dead_helper</title>
<path fill="#3a2028" stroke="#8d4c58" d="M871.62,-568.07C871.62,-568.07 776.12,-568.07 776.12,-568.07 770.12,-568.07 764.12,-562.07 764.12,-556.07 764.12,-556.07 764.12,-544.07 764.12,-544.07 764.12,-538.07 770.12,-532.07 776.12,-532.07 776.12,-532.07 871.62,-532.07 871.62,-532.07 877.62,-532.07 883.62,-538.07 883.62,-544.07 883.62,-544.07 883.62,-556.07 883.62,-556.07 883.62,-562.07 877.62,-568.07 871.62,-568.07"/>
<text xml:space="preserve" text-anchor="middle" x="823.88" y="-545.62" font-family="Helvetica,sans-Serif" font-size="11.00" fill="#edf2ff">helpers/deprecated.ts</text>
</g>
<!-- db_client -->
<g id="node21" class="node">
<title>db_client</title>
<path fill="#1d342d" stroke="#4f8c74" d="M1121.75,-379.07C1121.75,-379.07 1078.75,-379.07 1078.75,-379.07 1072.75,-379.07 1066.75,-373.07 1066.75,-367.07 1066.75,-367.07 1066.75,-355.07 1066.75,-355.07 1066.75,-349.07 1072.75,-343.07 1078.75,-343.07 1078.75,-343.07 1121.75,-343.07 1121.75,-343.07 1127.75,-343.07 1133.75,-349.07 1133.75,-355.07 1133.75,-355.07 1133.75,-367.07 1133.75,-367.07 1133.75,-373.07 1127.75,-379.07 1121.75,-379.07"/>
<text xml:space="preserve" text-anchor="middle" x="1100.25" y="-356.62" font-family="Helvetica,sans-Serif" font-size="11.00" fill="#edf2ff">db/client.ts</text>
</g>
<!-- sdk_payment -->
<g id="node22" class="node">
<title>sdk_payment</title>
<path fill="#1d342d" stroke="#4f8c74" d="M1132.25,-442.07C1132.25,-442.07 1068.25,-442.07 1068.25,-442.07 1062.25,-442.07 1056.25,-436.07 1056.25,-430.07 1056.25,-430.07 1056.25,-418.07 1056.25,-418.07 1056.25,-412.07 1062.25,-406.07 1068.25,-406.07 1068.25,-406.07 1132.25,-406.07 1132.25,-406.07 1138.25,-406.07 1144.25,-412.07 1144.25,-418.07 1144.25,-418.07 1144.25,-430.07 1144.25,-430.07 1144.25,-436.07 1138.25,-442.07 1132.25,-442.07"/>
<text xml:space="preserve" text-anchor="middle" x="1100.25" y="-419.62" font-family="Helvetica,sans-Serif" font-size="11.00" fill="#edf2ff">sdk/payment.ts</text>
</g>
<!-- sdk_email -->
<g id="node23" class="node">
<title>sdk_email</title>
<path fill="#1d342d" stroke="#4f8c74" d="M1124.38,-568.07C1124.38,-568.07 1076.12,-568.07 1076.12,-568.07 1070.12,-568.07 1064.12,-562.07 1064.12,-556.07 1064.12,-556.07 1064.12,-544.07 1064.12,-544.07 1064.12,-538.07 1070.12,-532.07 1076.12,-532.07 1076.12,-532.07 1124.38,-532.07 1124.38,-532.07 1130.38,-532.07 1136.38,-538.07 1136.38,-544.07 1136.38,-544.07 1136.38,-556.07 1136.38,-556.07 1136.38,-562.07 1130.38,-568.07 1124.38,-568.07"/>
<text xml:space="preserve" text-anchor="middle" x="1100.25" y="-545.62" font-family="Helvetica,sans-Serif" font-size="11.00" fill="#edf2ff">sdk/email.ts</text>
</g>
<!-- queue_client -->
<g id="node24" class="node">
<title>queue_client</title>
<path fill="#1d342d" stroke="#4f8c74" d="M1130.75,-505.07C1130.75,-505.07 1069.75,-505.07 1069.75,-505.07 1063.75,-505.07 1057.75,-499.07 1057.75,-493.07 1057.75,-493.07 1057.75,-481.07 1057.75,-481.07 1057.75,-475.07 1063.75,-469.07 1069.75,-469.07 1069.75,-469.07 1130.75,-469.07 1130.75,-469.07 1136.75,-469.07 1142.75,-475.07 1142.75,-481.07 1142.75,-481.07 1142.75,-493.07 1142.75,-493.07 1142.75,-499.07 1136.75,-505.07 1130.75,-505.07"/>
<text xml:space="preserve" text-anchor="middle" x="1100.25" y="-482.62" font-family="Helvetica,sans-Serif" font-size="11.00" fill="#edf2ff">queue/client.ts</text>
</g>
<!-- test_factory -->
<g id="node25" class="node">
<title>test_factory</title>
<path fill="#2c2540" stroke="#705d99" d="M291.38,-328.07C291.38,-328.07 230.38,-328.07 230.38,-328.07 224.38,-328.07 218.38,-322.07 218.38,-316.07 218.38,-316.07 218.38,-304.07 218.38,-304.07 218.38,-298.07 224.38,-292.07 230.38,-292.07 230.38,-292.07 291.38,-292.07 291.38,-292.07 297.38,-292.07 303.38,-298.07 303.38,-304.07 303.38,-304.07 303.38,-316.07 303.38,-316.07 303.38,-322.07 297.38,-328.07 291.38,-328.07"/>
<text xml:space="preserve" text-anchor="middle" x="260.88" y="-305.62" font-family="Helvetica,sans-Serif" font-size="11.00" fill="#edf2ff">tests/factory.ts</text>
</g>
<!-- test_mock -->
<g id="node26" class="node">
<title>test_mock</title>
<path fill="#2c2540" stroke="#705d99" d="M304.5,-391.07C304.5,-391.07 217.25,-391.07 217.25,-391.07 211.25,-391.07 205.25,-385.07 205.25,-379.07 205.25,-379.07 205.25,-367.07 205.25,-367.07 205.25,-361.07 211.25,-355.07 217.25,-355.07 217.25,-355.07 304.5,-355.07 304.5,-355.07 310.5,-355.07 316.5,-361.07 316.5,-367.07 316.5,-367.07 316.5,-379.07 316.5,-379.07 316.5,-385.07 310.5,-391.07 304.5,-391.07"/>
<text xml:space="preserve" text-anchor="middle" x="260.88" y="-368.62" font-family="Helvetica,sans-Serif" font-size="11.00" fill="#edf2ff">tests/mock&#45;server.ts</text>
</g>
<!-- worker_sync -->
<g id="node27" class="node">
<title>worker_sync</title>
<path fill="#232838" stroke="#5f6b84" d="M294,-243.07C294,-243.07 227.75,-243.07 227.75,-243.07 221.75,-243.07 215.75,-237.07 215.75,-231.07 215.75,-231.07 215.75,-219.07 215.75,-219.07 215.75,-213.07 221.75,-207.07 227.75,-207.07 227.75,-207.07 294,-207.07 294,-207.07 300,-207.07 306,-213.07 306,-219.07 306,-219.07 306,-231.07 306,-231.07 306,-237.07 300,-243.07 294,-243.07"/>
<text xml:space="preserve" text-anchor="middle" x="260.88" y="-220.62" font-family="Helvetica,sans-Serif" font-size="11.00" fill="#edf2ff">workers/sync.ts</text>
</g>
<!-- worker_invoice -->
<g id="node28" class="node">
<title>worker_invoice</title>
<path fill="#232838" stroke="#5f6b84" d="M299.62,-180.07C299.62,-180.07 222.12,-180.07 222.12,-180.07 216.12,-180.07 210.12,-174.07 210.12,-168.07 210.12,-168.07 210.12,-156.07 210.12,-156.07 210.12,-150.07 216.12,-144.07 222.12,-144.07 222.12,-144.07 299.62,-144.07 299.62,-144.07 305.62,-144.07 311.62,-150.07 311.62,-156.07 311.62,-156.07 311.62,-168.07 311.62,-168.07 311.62,-174.07 305.62,-180.07 299.62,-180.07"/>
<text xml:space="preserve" text-anchor="middle" x="260.88" y="-157.62" font-family="Helvetica,sans-Serif" font-size="11.00" fill="#edf2ff">workers/invoice.ts</text>
</g>
</g>
</svg>
